<?xml version="1.0" encoding="utf-8"?>
<!-- Generator: Adobe Illustrator 19.2.1, SVG Export Plug-In . SVG Version: 6.00 Build 0)  -->
<svg version="1.1"
	 id="svg2" xmlns:cc="http://creativecommons.org/ns#" xmlns:dc="http://purl.org/dc/elements/1.1/" xmlns:rdf="http://www.w3.org/1999/02/22-rdf-syntax-ns#" xmlns:svg="http://www.w3.org/2000/svg"
	 xmlns="http://www.w3.org/2000/svg" xmlns:xlink="http://www.w3.org/1999/xlink" x="0px" y="0px" viewBox="0 0 45 45"
	 style="enable-background:new 0 0 45 45;" xml:space="preserve">
<style type="text/css">
	.st0{fill:#3E721D;}
	.st1{fill:#D99E82;}
	.st2{fill:#C1694F;}
	.st3{fill:#5C913B;}
</style>
<g>
	<g>
		<path class="st0" d="M26.2,3.1c-1.5,0.8-2.7,1.8-3.7,2.8c-1-1-2.2-2-3.7-2.8C11.7-0.8,6.4,2.4,6.7,4c0.2,1.6,4.6-2.3,9.6,4.3
			c0.9,1.2,1.7,2.2,2.5,3.1c0.3-1.6,1.3-1.4,3.7-1.4c2.3,0,3.4-0.2,3.7,1.4c0.8-0.8,1.6-1.9,2.5-3.1c5.1-6.6,9.4-2.7,9.6-4.3
			C38.6,2.4,33.3-0.8,26.2,3.1z"/>
		<path class="st1" d="M22.5,10c-2.3,0-3.4-0.2-3.7,1.4c0,0.3-0.1,0.6-0.1,1.1L17.5,40c0,2.8,2.2,3.8,5,3.8s5-1,5-3.8l-1.2-27.5
			c0-0.4,0-0.8-0.1-1.1C25.9,9.8,24.8,10,22.5,10z"/>
	</g>
	<g>
		<path class="st2" d="M27.5,40.4c0-0.1,0-0.3,0-0.4l-0.1-2.3c-0.5,0.4-2.1,1.1-4.9,1.1c-2.8,0-4.4-0.7-4.9-1.1L17.5,40
			c0,0.2,0,0.3,0,0.4c1.4,0.5,3.2,0.8,5,0.8S26,41,27.5,40.4z"/>
		<path class="st2" d="M27.2,34.3l-0.1-2.7c-0.7,0.4-2.3,0.9-4.6,0.9c-2.4,0-3.9-0.5-4.6-0.9l-0.1,2.7c1.4,0.5,3.1,0.7,4.7,0.7
			S25.9,34.8,27.2,34.3z"/>
		<path class="st2" d="M22.5,26.2c-2.1,0-3.5-0.4-4.3-0.8L18,28.1c1.3,0.4,2.9,0.6,4.5,0.6s3.1-0.2,4.5-0.6l-0.1-2.6
			C26,25.9,24.6,26.2,22.5,26.2z"/>
		<path class="st2" d="M22.5,20c-1.9,0-3.2-0.3-4.1-0.6l-0.1,2.6c1.3,0.4,2.7,0.6,4.2,0.6s2.9-0.2,4.2-0.6l-0.1-2.6
			C25.7,19.7,24.4,20,22.5,20z"/>
		<path class="st2" d="M22.5,13.8c-1.7,0-2.9-0.3-3.8-0.5l-0.1,2.6c1.2,0.3,2.6,0.5,3.9,0.5s2.7-0.2,3.9-0.5l-0.1-2.6
			C25.4,13.5,24.2,13.8,22.5,13.8z"/>
	</g>
	<path class="st3" d="M33.8,5c-5.6-0.8-10.2,1.1-11.1,4l-0.2,0.1L22.3,9c-0.9-2.9-5.5-4.8-11.1-4C2.5,6.2,0,12.5,1.2,13.8
		s2.5-5,11.2-2.5l0.1,0c-0.2,0.1-0.4,0.3-0.6,0.4c-7.1,5.3-6.2,12-4.6,12.5c1.7,0.5-0.2-5.6,8.7-7.6c2.8-0.6,5-1.2,6.4-2
		c1.5,0.7,3.6,1.3,6.4,2c8.9,2,7,8.1,8.7,7.6c1.7-0.5,2.5-7.2-4.6-12.5c-0.2-0.1-0.4-0.3-0.6-0.4l0.1,0c8.8-2.5,10,3.8,11.2,2.5
		S42.5,6.2,33.8,5z"/>
</g>
</svg>
