<svg xmlns="http://www.w3.org/2000/svg" viewBox="0 0 37.5 45"><defs><style>.a{fill:#f4900c;}.b{fill:#ffcc4d;}.c{fill:#be1931;}</style></defs><title>1f355</title><path class="a" d="M7.159,7.022A35.687,35.687,0,0,1,22.5,3.75,35.305,35.305,0,0,1,37.669,6.939a1.284,1.284,0,0,1,.742,1.227A2.673,2.673,0,0,0,40.874,7.5a2.382,2.382,0,0,0,.376-1.25c0-2.5-8.4-6.25-18.75-6.25S3.75,3.75,3.75,6.25A2.382,2.382,0,0,0,4.126,7.5a2.663,2.663,0,0,0,2.447.666A1.169,1.169,0,0,1,7.159,7.022Z" transform="translate(-3.75 0)"/><path class="b" d="M25,42.5L38.38,8.474a1.612,1.612,0,0,0,.031-0.308,1.284,1.284,0,0,0-.742-1.227A35.305,35.305,0,0,0,22.5,3.75,35.687,35.687,0,0,0,7.159,7.022a1.169,1.169,0,0,0-.586,1.143,1.85,1.85,0,0,0,.067.454C6.8,9.166,20,42.5,20,42.5S21.12,45,22.5,45,25,42.5,25,42.5Z" transform="translate(-3.75 0)"/><path class="c" d="M17.5,33.75a5,5,0,0,0-.926.093C18.533,38.8,20,42.5,20,42.5s0.088,0.174.237,0.427A5,5,0,0,0,17.5,33.75Z" transform="translate(-3.75 0)"/><path class="c" d="M16.25,30a5,5,0,1,0-4.222-7.656c0.976,2.472,1.988,5.033,2.953,7.473A4.952,4.952,0,0,0,16.25,30Z" transform="translate(-3.75 0)"/><circle class="c" cx="16.25" cy="10" r="5"/><path class="c" d="M31.25,11.25a5,5,0,0,0,0,10,4.942,4.942,0,0,0,2.346-.61l2.362-6.008A4.985,4.985,0,0,0,31.25,11.25Z" transform="translate(-3.75 0)"/><path class="c" d="M28.75,26.25a4.991,4.991,0,0,0-1.226,9.831l3.616-9.2A4.943,4.943,0,0,0,28.75,26.25Z" transform="translate(-3.75 0)"/><path class="c" d="M10.65,18.853A4.98,4.98,0,0,0,7.5,10c-0.109,0-.211.025-0.318,0.032C7.87,11.8,9.15,15.052,10.65,18.853Z" transform="translate(-3.75 0)"/></svg>