<?xml version="1.0" encoding="utf-8"?>
<!-- Generator: Adobe Illustrator 19.2.1, SVG Export Plug-In . SVG Version: 6.00 Build 0)  -->
<svg version="1.1"
	 id="svg2" xmlns:cc="http://creativecommons.org/ns#" xmlns:dc="http://purl.org/dc/elements/1.1/" xmlns:rdf="http://www.w3.org/1999/02/22-rdf-syntax-ns#" xmlns:svg="http://www.w3.org/2000/svg"
	 xmlns="http://www.w3.org/2000/svg" xmlns:xlink="http://www.w3.org/1999/xlink" x="0px" y="0px" viewBox="0 0 45 45"
	 style="enable-background:new 0 0 45 45;" xml:space="preserve">
<style type="text/css">
	.st0{fill:#DD2E44;}
	.st1{fill:#BE1931;}
	.st2{fill:none;}
	.st3{fill:#F5F8FA;}
</style>
<g>
	<g>
		<path class="st0" d="M9.1,16.3c5.1,0.7,8.7-3,8.1-8.1l-0.5-3.8C16-0.7,9.6-1,8.8,1.8L7.6,6.8L2.6,8c-2.7,0.8-2.4,7.1,2.7,7.8
			L9.1,16.3z"/>
		<path class="st0" d="M40.4,28.2l-3.8-0.5c-5.1-0.7-8.7,3-8.1,8.1l0.5,3.8c0.7,5.1,7,5.4,7.8,2.7l1.2-5.1L43,36
			C45.7,35.2,45.5,28.8,40.4,28.2z"/>
	</g>
	<path class="st1" d="M38.1,27.9l-1.6-0.2c-0.4-0.1-0.8-0.1-1.2-0.1c-4.5,0-7.5,3.4-6.9,8.1l0.1,0.8c2-0.3,4.3-1.5,6.3-3.5
		C36.5,31.4,37.6,29.6,38.1,27.9z"/>
	<path class="st1" d="M8.6,16.2l0.4,0.1c5.1,0.7,8.7-3,8.1-8.1L17,7.1c-1.6,0.6-3.4,1.6-4.9,3.2C10.2,12.1,9,14.3,8.6,16.2z"/>
	<ellipse transform="matrix(0.7071 -0.7071 0.7071 0.7071 -8.4356 22.9396)" class="st0" cx="23.5" cy="21.7" rx="13.3" ry="13.3"/>
	<g>
		<path class="st2" d="M23.4,21.3c-5.4-0.7-8.5-3.2-10-5.8c-1.1,1.9-1.7,4-1.7,6.1c0,0.5,0.1,1.1,0.1,1.6
			C15.2,24.4,20,23.3,23.4,21.3c-2.7,4.6-6.2,6.8-9.3,7.6c0.3,0.4,0.6,0.8,1,1.1c1.4,1.4,3.1,2.4,4.8,2.9
			C22.6,30,23.9,25.1,23.4,21.3z"/>
		<path class="st2" d="M23.4,21.3C23.4,21.3,23.4,21.3,23.4,21.3c-0.7-5.6,2.2-8.7,5.3-10.2c-1.7-0.8-3.5-1.3-5.3-1.3
			c-1.6,0-3.2,0.3-4.6,0.9C17.6,14.6,19.8,19.3,23.4,21.3z"/>
		<path class="st2" d="M23.4,21.2C23.4,21.3,23.5,21.3,23.4,21.2C23.5,21.3,23.5,21.3,23.4,21.2C23.5,21.3,23.5,21.3,23.4,21.2
			c3.2,4.3,3.4,8.6,2.6,11.9c2.1-0.5,4.1-1.5,5.8-3.2l0,0c0.1-0.1,0.1-0.1,0.2-0.2C31.5,25.6,27.9,22.1,23.4,21.2z"/>
		<path class="st2" d="M23.4,21.2c5.5-2.5,9.4-0.6,11.7,2c0.1-0.5,0.1-1,0.1-1.6c0-2.1-0.5-4.1-1.6-5.9
			C29.4,15.7,24.8,18.3,23.4,21.2z"/>
		<path class="st3" d="M23.4,21.3c-3.3,2-8.2,3.1-11.6,2c0.3,2,1.1,3.9,2.4,5.6C17.2,28.1,20.8,25.9,23.4,21.3z"/>
		<path class="st3" d="M23.5,21.3C23.5,21.3,23.5,21.3,23.5,21.3C23.5,21.3,23.5,21.3,23.5,21.3C23.5,21.3,23.4,21.3,23.5,21.3
			C23.4,21.3,23.4,21.3,23.5,21.3c-3.7-2-5.9-6.7-4.6-10.5c-1.4,0.6-2.6,1.4-3.7,2.5c-0.7,0.7-1.2,1.4-1.7,2.2
			C14.9,18.1,18,20.6,23.5,21.3c0.5,3.8-0.9,8.7-3.5,11.6c1.1,0.4,2.3,0.5,3.5,0.5c0.9,0,1.7-0.1,2.6-0.3
			C26.9,29.9,26.6,25.6,23.5,21.3z"/>
		<path class="st3" d="M23.4,21.2c4.4,0.8,8.1,4.4,8.5,8.6c1.8-1.9,2.9-4.2,3.2-6.6C32.9,20.7,29,18.7,23.4,21.2z"/>
		<path class="st3" d="M28.8,11.1c-3.1,1.5-6,4.5-5.3,10.2c1.4-2.9,5.9-5.6,10.2-5.5c-0.5-0.9-1.1-1.7-1.8-2.4
			C30.9,12.4,29.9,11.6,28.8,11.1z"/>
		<path class="st0" d="M23.5,8.3c-3.4,0-6.8,1.3-9.4,3.9c-5.2,5.2-5.2,13.6,0,18.8c5.2,5.2,13.6,5.2,18.8,0c5.2-5.2,5.2-13.6,0-18.8
			C30.3,9.6,26.9,8.3,23.5,8.3z M35.3,21.7c0,0.5,0,1-0.1,1.6c-0.3,2.4-1.4,4.7-3.2,6.6c-0.1,0.1-0.1,0.1-0.2,0.2l0,0
			c-1.6,1.6-3.7,2.7-5.8,3.2c-0.9,0.2-1.7,0.3-2.6,0.3c-1.2,0-2.4-0.2-3.5-0.5c-1.8-0.6-3.4-1.5-4.8-2.9c-0.4-0.4-0.7-0.7-1-1.1
			c-1.3-1.7-2.1-3.6-2.4-5.6c-0.1-0.5-0.1-1.1-0.1-1.6c0-2.1,0.6-4.3,1.7-6.1c0.5-0.8,1-1.5,1.7-2.2c1.1-1.1,2.4-1.9,3.7-2.5
			c1.5-0.6,3-0.9,4.6-0.9c1.8,0,3.6,0.4,5.3,1.3c1.1,0.6,2.1,1.3,3.1,2.2c0.7,0.7,1.3,1.5,1.8,2.4C34.7,17.5,35.3,19.6,35.3,21.7z"
			/>
	</g>
</g>
</svg>
