<?xml version="1.0" encoding="utf-8"?>
<!-- Generator: Adobe Illustrator 19.2.1, SVG Export Plug-In . SVG Version: 6.00 Build 0)  -->
<svg version="1.1"
	 id="svg2" xmlns:cc="http://creativecommons.org/ns#" xmlns:dc="http://purl.org/dc/elements/1.1/" xmlns:rdf="http://www.w3.org/1999/02/22-rdf-syntax-ns#" xmlns:svg="http://www.w3.org/2000/svg"
	 xmlns="http://www.w3.org/2000/svg" xmlns:xlink="http://www.w3.org/1999/xlink" x="0px" y="0px" viewBox="0 0 45 45"
	 style="enable-background:new 0 0 45 45;" xml:space="preserve">
<style type="text/css">
	.st0{fill:#292F33;}
	.st1{fill:#66757F;}
	.st2{fill:#744EAA;}
</style>
<g>
	<g>
		<path class="st0" d="M45,38.7c0-1.8-2.9-3.4-7.3-4.5L40,4.8c0-0.2,0-0.3,0-0.5l0-0.1c0-2.3-7.8-4.1-17.5-4.1C12.8,0.1,5,1.9,5,4.2
			l0,0.1c0,0.1,0,0.3,0,0.5l2.3,29.5C2.9,35.4,0,37,0,38.7C0,42.2,10.8,45,22.5,45C34.2,45,45,42.2,45,38.7L45,38.7z M36.6,6.2
			c-5.5,1.5-10.4,2-14.7,2c-6.1,0-10.8-1.1-13.6-2.1C7.7,6,7.3,5.3,7.6,4.6c0.2-0.7,0.9-1,1.6-0.8c3.6,1.2,13.5,3.6,26.8,0
			c0.7-0.2,1.4,0.2,1.5,0.9C37.6,5.3,37.2,6,36.6,6.2z"/>
		<path class="st1" d="M35.9,3.8C22.6,7.4,12.8,5,9.1,3.8C8.5,3.6,7.8,4,7.6,4.6C7.3,5.3,7.7,6,8.4,6.2c2.8,0.9,7.5,2.1,13.6,2.1
			c4.2,0,9.2-0.5,14.7-2c0.7-0.2,1.1-0.9,0.9-1.5C37.3,4,36.6,3.6,35.9,3.8z"/>
	</g>
	<path class="st2" d="M37.7,34.7c0-0.1,0-0.3,0-0.5c0,0,0,0,0,0l0.6-7.3c-9.6,2.7-22,2.8-31.6-0.5l0.5,6.4c0.1,0.4,0.1,0.8,0.1,1.4
		c0,2.2,1.6,3.5,3.5,4.2c5.6,2.1,17.4,2.1,23.5,0.2C36.1,38.1,37.7,36.5,37.7,34.7z"/>
</g>
</svg>
