<svg xmlns="http://www.w3.org/2000/svg" viewBox="0 0 45 45"><defs><style>.a{fill:#f4900c;}.b{fill:#231f20;}</style></defs><title>1f3c0</title><path class="a" d="M45,22.5A22.5,22.5,0,1,1,22.5,0,22.5,22.5,0,0,1,45,22.5" transform="translate(0 0)"/><path class="b" d="M5.243,8.066C9.009,9.721,11.25,14.938,11.25,22.5S9.009,35.279,5.243,36.934a22.646,22.646,0,0,0,1.776,1.885c3.716-2.064,6.731-7.032,6.731-16.319S10.735,8.245,7.019,6.181A22.636,22.636,0,0,0,5.243,8.066Z" transform="translate(0 0)"/><path class="b" d="M33.75,22.5c0-7.562,2.242-12.778,6.007-14.434a22.62,22.62,0,0,0-1.776-1.885C34.265,8.245,31.25,13.213,31.25,22.5s3.015,14.255,6.731,16.319a22.63,22.63,0,0,0,1.776-1.885C35.992,35.278,33.75,30.062,33.75,22.5Z" transform="translate(0 0)"/><polygon class="b" points="23.75 0 21.25 0 21.25 21.25 0 21.25 0 23.75 21.25 23.75 21.25 45 23.75 45 23.75 23.75 45 23.75 45 21.25 23.75 21.25 23.75 0"/></svg>