<svg xmlns="http://www.w3.org/2000/svg" viewBox="0 0 44.184 43.601"><defs><style>.a{fill:#3b88c3;}.b{fill:#ccd6dd;}.c{fill:#e1e8ed;}</style></defs><title>1f3c9</title><path class="a" d="M10.318,10.318C1.363,19.273-2.409,34.3,3.663,41.338c7.038,6.071,22.065,2.3,31.02-6.655s14.038-21.36,6.655-31.02C34.3-2.409,19.273,1.363,10.318,10.318Z" transform="translate(-0.7 -0.7)"/><path class="b" d="M44.527,10.565C42.7,17.3,31.762,33.63,14.271,40.106c-1.459.625-1.355,2.5,1.041,2.708a59.454,59.454,0,0,0,6.431-.109,34.5,34.5,0,0,0,12.939-8.021C41.613,27.752,46.218,18.756,44.527,10.565Z" transform="translate(-0.7 -0.7)"/><path class="c" d="M41.672,4.128c-0.111-.155-0.217-0.312-0.334-0.466A10.654,10.654,0,0,0,39.673,2.5C36,0.76,27.446-.259,15,10,5.521,17.813,4.027,27.739,4.688,33.646c0.253,2.266,3.019,1.734,5.416,1.146C19.885,32.4,43.376,21.8,41.672,4.128Z" transform="translate(-0.7 -0.7)"/></svg>