<svg xmlns="http://www.w3.org/2000/svg" viewBox="0 0 45 45"><defs><style>.a{fill:#e1e8ed;}.b{fill:#99aab5;}</style></defs><title>1f3d0</title><circle class="a" cx="22.5" cy="22.5" r="22.5"/><path class="b" d="M24.236,22.613a1.236,1.236,0,0,1-.411-1.387c0.018-.051.039-0.1,0.058-0.148a41.2,41.2,0,0,1-8.109-.9c-0.044.128-.093,0.244-0.136,0.374a1.249,1.249,0,1,1-2.37-.791c0.027-.082.059-0.155,0.086-0.236a17.891,17.891,0,0,1-5.668-2.891,1.247,1.247,0,0,1-2.21-1.1c0.089-.271.189-0.528,0.285-0.791a10.1,10.1,0,0,1-2.126-4.5,22.445,22.445,0,0,0-1.658,3.035A13.212,13.212,0,0,0,4.6,17.215c3.962,4.136,10.614,6.274,19.761,6.37-0.061-.214-0.115-0.424-0.181-0.641A0.5,0.5,0,0,1,24.236,22.613Z" transform="translate(0 0)"/><path class="b" d="M25.692,31.265C11.027,31.79,3.613,25.73.063,20.9,0.026,21.427,0,21.96,0,22.5c0,0.735.038,1.462,0.107,2.179C4.384,29.214,11.737,33.8,24,33.8c0.556,0,1.134-.021,1.711-0.04Q25.757,32.563,25.692,31.265Z" transform="translate(0 0)"/><path class="b" d="M2.219,32.256a22.556,22.556,0,0,0,4.648,6.419c4.1,2.09,9.613,3.647,16.988,3.8a23.4,23.4,0,0,0,.835-2.346C12.721,39.809,5.946,35.889,2.219,32.256Z" transform="translate(0 0)"/><path class="b" d="M30.648,12.248a16.719,16.719,0,0,0-6.765,8.83c-0.018.051-.04,0.1-0.058,0.148a1.236,1.236,0,0,0,.411,1.387c0.32-.735,1.893-1.811,2.066-1.245l0.068,0.211a14.868,14.868,0,0,1,4.49-6.43c-0.206-.42-0.413-0.84-0.643-1.261A1.242,1.242,0,0,1,30.648,12.248Z" transform="translate(0 0)"/><path class="b" d="M41.018,9.724A18.262,18.262,0,0,0,30.751,12.18a1.245,1.245,0,0,1,1.659.509c0.2,0.363.372,0.724,0.554,1.086a14.555,14.555,0,0,1,5.18-1.516,1.244,1.244,0,0,1,2.126-1.294c0.256,0.4.5,0.807,0.725,1.222,0.616,0.034,1.153.093,1.578,0.154A22.485,22.485,0,0,0,41.018,9.724Z" transform="translate(0 0)"/><path class="b" d="M14.057,21.343a1.247,1.247,0,0,0,1.581-.79c0.043-.13.092-0.247,0.136-0.374C20.988,5.143,32.24,4.787,37.143,5.425a22.542,22.542,0,0,0-3.694-2.58c-6.341.3-15.511,3.258-20.1,16.681-0.028.081-.059,0.154-0.086,0.236A1.248,1.248,0,0,0,14.057,21.343Z" transform="translate(0 0)"/><path class="b" d="M24.236,22.613a0.5,0.5,0,0,0-.052.33c0.066,0.217.12,0.427,0.181,0.641a34.223,34.223,0,0,1,1.327,7.681q0.066,1.3.021,2.5a25.517,25.517,0,0,1-1.022,6.367,23.4,23.4,0,0,1-.835,2.346A22.285,22.285,0,0,1,22.617,45a22.67,22.67,0,0,0,2.937-.209c2.289-4.685,4.146-12.2,1.062-22.444l-0.246-.765L26.3,21.368C26.129,20.8,24.555,21.878,24.236,22.613Z" transform="translate(0 0)"/><path class="b" d="M30.751,12.18c-0.012.006-.025,0.005-0.037,0.011s-0.041.04-.066,0.056a1.242,1.242,0,0,0-.432,1.641c0.23,0.421.437,0.841,0.643,1.261,5.587,11.367,2.626,22.145-.135,28.293a22.411,22.411,0,0,0,3.36-1.652c2.54-6.876,4.316-17.2-1.12-28.014-0.182-.362-0.356-0.723-0.554-1.086A1.245,1.245,0,0,0,30.751,12.18Z" transform="translate(0 0)"/><path class="b" d="M38.543,10.588a1.245,1.245,0,0,0-.4,1.671c0.01,0.018.011,0.039,0.022,0.056,5.374,8.375,3,18.856-.1,26.422a22.552,22.552,0,0,0,4.8-6.677c1.776-7.62,1.151-14.4-1.873-19.874-0.229-.414-0.469-0.823-0.725-1.222A1.25,1.25,0,0,0,38.543,10.588Z" transform="translate(0 0)"/><path class="b" d="M6.273,17.112a1.236,1.236,0,0,0,1.413-.477,1.239,1.239,0,0,0,.165-0.318A23.537,23.537,0,0,1,26.434.35,22.315,22.315,0,0,0,18.766.314,25.311,25.311,0,0,0,5.761,14.743c-0.1.263-.2,0.52-0.285,0.791A1.25,1.25,0,0,0,6.273,17.112Z" transform="translate(0 0)"/></svg>