<svg xmlns="http://www.w3.org/2000/svg" viewBox="0 0 45 43.883"><defs><style>.a{fill:#292f33;}.b{fill:none;}.c{fill:#ffcc4d;}.d{fill:#ccd6dd;}.e{fill:#99aab5;}</style></defs><title>1f41d</title><path class="a" d="M35.352,25c0-5.2-2.647-8.467-6.561-10.039a10.584,10.584,0,0,0,.819-4.005c0-1.977-.62-3.124-1.645-3.79a15.852,15.852,0,0,0,3.784-2.514c0.978-.977,1.175-2.361.443-3.094S30.075,1.024,29.1,2A14.089,14.089,0,0,0,26.32,6.525,18.457,18.457,0,0,0,22.5,6.25a18.534,18.534,0,0,0-3.819.274A14.085,14.085,0,0,0,15.9,2c-0.976-.977-2.36-1.175-3.092-0.443s-0.535,2.116.441,3.094a15.929,15.929,0,0,0,3.785,2.514c-1.026.665-1.645,1.812-1.645,3.79a10.585,10.585,0,0,0,.819,4.005C12.3,16.533,9.649,19.8,9.649,25c0,7.213,5.092,15.23,11.6,16.157l0,0.093c0,2.071.56,3.75,1.25,3.75s1.25-1.679,1.25-3.75l0-.093C30.259,40.231,35.352,32.213,35.352,25Z" transform="translate(0 -1.117)"/><path class="b" d="M11.579,28.75H33.421a30.129,30.129,0,0,1-6.705-5H18.284A30.138,30.138,0,0,1,11.579,28.75Z" transform="translate(0 -1.117)"/><path class="b" d="M22.826,18.75A3.248,3.248,0,0,1,22.5,17.5a3.247,3.247,0,0,1-.326,1.249h0.652Z" transform="translate(0 -1.117)"/><path class="c" d="M18.284,23.75h8.431a18.4,18.4,0,0,1-3.889-5H22.174A18.406,18.406,0,0,1,18.284,23.75Z" transform="translate(0 -1.117)"/><path class="c" d="M11.579,28.75c-0.456.237-.906,0.448-1.344,0.624a19.586,19.586,0,0,0,1.747,4.376H33.02a19.583,19.583,0,0,0,1.747-4.375c-0.438-.176-0.889-0.388-1.346-0.625H11.579Z" transform="translate(0 -1.117)"/><path class="c" d="M16.048,38.75a10.253,10.253,0,0,0,6.452,2.5,10.255,10.255,0,0,0,6.453-2.5h-12.9Z" transform="translate(0 -1.117)"/><path class="a" d="M18.284,23.75a18.406,18.406,0,0,0,3.89-5A3.247,3.247,0,0,0,22.5,17.5c0-2.4-5.189-1.039-10.012-.114A10.456,10.456,0,0,0,9.649,25a17.311,17.311,0,0,0,.586,4.374c0.438-.176.888-0.387,1.344-0.624A30.138,30.138,0,0,0,18.284,23.75Z" transform="translate(0 -1.117)"/><path class="a" d="M22.5,17.5a3.248,3.248,0,0,0,.326,1.249,18.4,18.4,0,0,0,3.889,5,30.129,30.129,0,0,0,6.705,5c0.457,0.237.907,0.449,1.346,0.625A17.311,17.311,0,0,0,35.352,25a10.456,10.456,0,0,0-2.839-7.614C27.69,16.462,22.5,15.1,22.5,17.5Z" transform="translate(0 -1.117)"/><path class="d" d="M7.5,15.632c-5.177,0-7.5,2.311-7.5,5.619s2.323,6.361,7.5,6.361,15-7.421,15-10.73S12.679,15.632,7.5,15.632Z" transform="translate(0 -1.117)"/><path class="d" d="M37.5,15.632c-5.179,0-15-2.056-15,1.25s9.821,10.73,15,10.73S45,24.558,45,21.25,42.679,15.632,37.5,15.632Z" transform="translate(0 -1.117)"/><path class="e" d="M2.5,23.75a1.25,1.25,0,0,1,0-2.5c0.06,0,6.185-.087,17-4.892a1.25,1.25,0,0,1,1.015,2.285C9.146,23.691,2.766,23.75,2.5,23.75" transform="translate(0 -1.117)"/><path class="e" d="M42.5,23.75c-0.266,0-6.645-.059-18.007-5.108a1.25,1.25,0,0,1,1.015-2.285c10.81,4.805,16.935,4.891,17,4.892a1.25,1.25,0,0,1,0,2.5" transform="translate(0 -1.117)"/></svg>