<?xml version="1.0" encoding="utf-8"?>
<!-- Generator: Adobe Illustrator 19.2.1, SVG Export Plug-In . SVG Version: 6.00 Build 0)  -->
<svg version="1.1"
	 id="svg2" xmlns:cc="http://creativecommons.org/ns#" xmlns:dc="http://purl.org/dc/elements/1.1/" xmlns:rdf="http://www.w3.org/1999/02/22-rdf-syntax-ns#" xmlns:svg="http://www.w3.org/2000/svg"
	 xmlns="http://www.w3.org/2000/svg" xmlns:xlink="http://www.w3.org/1999/xlink" x="0px" y="0px" viewBox="0 0 45 45"
	 style="enable-background:new 0 0 45 45;" xml:space="preserve">
<style type="text/css">
	.st0{fill:#D99E82;}
	.st1{fill:#E1E8ED;}
	.st2{fill:#66757F;}
	.st3{fill:#CCD6DD;}
</style>
<g>
	<path class="st0" d="M2.5,37.5h36.2c0,0,2.5,0,2.5-2.5v-6.2c0-2.5-2.5-2.5-2.5-2.5H2.5c0,0-2.5,0-2.5,2.5V35
		C0,37.5,2.5,37.5,2.5,37.5z"/>
	<g>
		<rect x="15" y="26.2" class="st1" width="16.2" height="11.2"/>
		<path class="st2" d="M38.8,26.2h-7.5v11.2h7.5c0,0,2.5,0,2.5-2.5v-6.2C41.2,26.2,38.8,26.2,38.8,26.2z"/>
	</g>
	<path class="st3" d="M29.7,5.2c-0.6,2.5,0.3,4.8,2,5.8c1.4,0.8,3.5,1,4.9,0.1c1.2-0.8,1.9-2.1,1.9-3.6c0-0.7-0.6-1.2-1.2-1.2
		c-0.7,0-1.2,0.6-1.2,1.2c0,0.7-0.3,1.2-0.7,1.5c-0.6,0.4-1.6,0.6-2.4,0c-0.8-0.6-1.1-1.7-0.8-3.2c0.2-1,1.3-3.2,5.2-3.2
		c3.6,0,4.7,2.6,5,3.7c0.7,2.4,0,5.8-3.2,7.7c-6.4,3.8-5.6,9.8-5.6,10c0.1,0.6,0.6,1.1,1.2,1.1l0.2,0c0.7-0.1,1.2-0.7,1.1-1.4
		c0,0-0.6-4.5,4.4-7.5c3.6-2.2,5.4-6.5,4.3-10.5C43.7,2.1,40.9,0,37.2,0C33.3,0,30.4,2,29.7,5.2z"/>
</g>
</svg>
