<svg xmlns="http://www.w3.org/2000/svg" viewBox="0 0 43.72 43.124"><defs><style>.a{fill:#77b255;}.b{fill:#f4900c;}.c{fill:#d67503;}</style></defs><title>1f955</title><path class="a" d="M38.87,11.166C43.288,8.513,44.38.766,43.5,1.649c0.884-.884-7.071,0-9.722,4.42,0-1.767-1.768-8.839-4.419-2.651a27.574,27.574,0,0,0-1.683,4.864,7.759,7.759,0,0,1,5.66,2.649c1.87,1.87,2.9,3.9,2.6,6.424a27.268,27.268,0,0,0,5.481-1.873C47.6,12.829,40.637,11.166,38.87,11.166Z" transform="translate(-0.21 -0.927)"/><path class="b" d="M33.331,10.931a7.759,7.759,0,0,0-5.66-2.649c-3.208.03-7.231,2.281-12.9,7.953C5.251,25.753-1.583,41.425.627,43.633s17.881-4.622,27.4-14.141c5.229-5.229,7.552-9.057,7.909-12.137C36.229,14.827,35.2,12.8,33.331,10.931Z" transform="translate(-0.21 -0.927)"/><path class="c" d="M27.344,18.2a34.361,34.361,0,0,1-5.874-7.637,32.115,32.115,0,0,0-3.011,2.265C21.962,17.347,28.619,19.474,27.344,18.2Z" transform="translate(-0.21 -0.927)"/><path class="c" d="M9.127,22.949c3.509,4.5,10.13,6.612,8.859,5.341A34.887,34.887,0,0,1,11.6,19.738C10.742,20.778,9.915,21.853,9.127,22.949Z" transform="translate(-0.21 -0.927)"/><path class="c" d="M21.486,21.7c-1.275-1.277.86,5.4,5.391,8.9,0.391-.365.777-0.733,1.151-1.106,0.563-.563,1.088-1.108,1.585-1.639A34.581,34.581,0,0,1,21.486,21.7Z" transform="translate(-0.21 -0.927)"/><path class="c" d="M10.236,31.7c-1.153-1.154.479,4.186,4.146,7.808,1.117-.615,2.253-1.28,3.39-1.994A34.349,34.349,0,0,1,10.236,31.7Z" transform="translate(-0.21 -0.927)"/></svg>