<?xml version="1.0" encoding="utf-8"?>
<!-- Generator: Adobe Illustrator 19.2.1, SVG Export Plug-In . SVG Version: 6.00 Build 0)  -->
<svg version="1.1"
	 id="svg2" xmlns:cc="http://creativecommons.org/ns#" xmlns:dc="http://purl.org/dc/elements/1.1/" xmlns:rdf="http://www.w3.org/1999/02/22-rdf-syntax-ns#" xmlns:svg="http://www.w3.org/2000/svg"
	 xmlns="http://www.w3.org/2000/svg" xmlns:xlink="http://www.w3.org/1999/xlink" x="0px" y="0px" viewBox="0 0 45 45"
	 style="enable-background:new 0 0 45 45;" xml:space="preserve">
<style type="text/css">
	.st0{fill:#EDB980;}
	.st1{fill:#E5A157;}
	.st2{fill:#FFD983;}
</style>
<g>
	<path class="st0" d="M30.1,5.8L6.4,29.5c-4.7,4.7-4.8,10.3-2.8,12.3c2,2,7.6,1.9,12.3-2.8l23.7-23.7C44.3,10.6,44.3,5,42.4,3
		C40.4,1,34.8,1.1,30.1,5.8z"/>
	<g>
		<path class="st1" d="M30.4,10c2,2,3.4,3.6,4.5,2.6c0.2-0.2,0.4-0.6,0.4-0.9c0-0.3-0.2-0.7-0.5-1.2c-0.3-0.5-0.7-1.1-1.2-1.6
			c-0.9-1.1-2.2-2.2-3.2-3c-0.1-0.1-0.1-0.1-0.2-0.1c0,0-0.1,0.1-0.1,0.1l-1.8,1.8C28.8,8.4,29.6,9.1,30.4,10z"/>
		<path class="st2" d="M33.7,8.8c0.5,0.6,0.9,1.1,1.2,1.6c0.3,0.5,0.4,0.9,0.5,1.2c0,0,0,0,0,0.1c0,0.3,0.3,0.5,0.6,0.4
			s0.5-0.3,0.4-0.6c-0.1-0.7-0.5-1.4-1-2.2c-0.8-1.2-2-2.4-3.2-3.4C31.8,5.6,31.4,5.3,31,5c-0.3,0.2-0.5,0.4-0.8,0.7
			c0.1,0,0.1,0.1,0.2,0.1C31.5,6.6,32.7,7.7,33.7,8.8z"/>
		<path class="st1" d="M24.7,15.6c2,2,3.5,3.6,4.5,2.6c0.2-0.2,0.4-0.6,0.4-0.9c0-0.3-0.2-0.7-0.5-1.2c-0.3-0.5-0.7-1.1-1.2-1.6
			c-0.9-1.1-2.2-2.2-3.2-3c-0.1-0.1-0.2-0.1-0.2-0.1l-2,2C23.1,14,23.9,14.8,24.7,15.6z"/>
		<path class="st2" d="M28,14.5c0.5,0.6,0.9,1.1,1.2,1.6c0.3,0.5,0.4,0.9,0.5,1.2c0,0,0,0,0,0.1c0,0.3,0.3,0.5,0.6,0.4
			c0.3,0,0.5-0.3,0.4-0.6c-0.1-0.7-0.5-1.4-1-2.2c-0.8-1.2-2-2.4-3.2-3.4c-0.4-0.4-0.8-0.7-1.3-0.9l-0.7,0.7c0.1,0,0.2,0.1,0.2,0.1
			C25.8,12.3,27,13.4,28,14.5z"/>
		<path class="st1" d="M19,21.3c2,2,3.4,3.6,4.5,2.6c0.2-0.2,0.4-0.6,0.4-0.9c0-0.3-0.2-0.7-0.5-1.2c-0.3-0.5-0.7-1.1-1.2-1.6
			c-0.9-1.1-2.2-2.2-3.2-3c-0.1-0.1-0.2-0.1-0.2-0.1l-2,2C17.4,19.7,18.2,20.5,19,21.3z"/>
		<path class="st2" d="M22.3,20.2c0.5,0.6,0.9,1.1,1.2,1.6c0.3,0.5,0.4,0.9,0.5,1.2c0,0,0,0,0,0.1c0,0.3,0.3,0.5,0.6,0.4
			c0.3,0,0.5-0.3,0.4-0.6c-0.1-0.7-0.5-1.4-1-2.2c-0.8-1.2-2-2.4-3.2-3.4c-0.4-0.4-0.8-0.7-1.3-0.9L18.9,17c0.1,0,0.2,0.1,0.2,0.1
			C20.2,17.9,21.4,19.1,22.3,20.2z"/>
		<path class="st1" d="M17.9,29.6c0.2-0.2,0.4-0.6,0.4-0.9c0-0.3-0.2-0.7-0.5-1.2c-0.3-0.5-0.7-1.1-1.2-1.6c-0.9-1.1-2.2-2.2-3.2-3
			c-0.1-0.1-0.2-0.1-0.2-0.1l-2,2c0.5,0.7,1.3,1.4,2.2,2.3C15.3,29,16.8,30.6,17.9,29.6z"/>
		<path class="st2" d="M16.6,25.9c0.5,0.6,0.9,1.1,1.2,1.6c0.3,0.5,0.4,0.9,0.5,1.2c0,0,0,0,0,0.1c0,0.3,0.3,0.5,0.6,0.4
			c0.3,0,0.5-0.3,0.4-0.6c-0.1-0.7-0.5-1.4-1-2.2c-0.8-1.2-2-2.4-3.2-3.4c-0.4-0.4-0.8-0.7-1.3-0.9l-0.7,0.7c0.1,0,0.2,0.1,0.2,0.1
			C14.5,23.6,15.7,24.7,16.6,25.9z"/>
		<path class="st1" d="M7.7,32.7c2,2,3.5,3.6,4.5,2.6c0.2-0.2,0.4-0.6,0.4-0.9c0-0.3-0.2-0.7-0.5-1.2c-0.3-0.5-0.7-1.1-1.2-1.6
			c-0.9-1.1-2.2-2.2-3.2-3c-0.1-0.1-0.2-0.1-0.2-0.1l-1.1,1.1c-0.3,0.3-0.6,0.6-0.9,0.9C6.1,31.1,6.9,31.8,7.7,32.7z"/>
		<path class="st2" d="M11,31.5c0.5,0.6,0.9,1.1,1.2,1.6c0.3,0.5,0.4,0.9,0.5,1.2c0,0,0,0,0,0.1c0,0.3,0.3,0.5,0.6,0.4
			s0.5-0.3,0.4-0.6c-0.1-0.7-0.5-1.4-1-2.2c-0.8-1.2-2-2.4-3.2-3.4c-0.4-0.4-0.8-0.7-1.3-0.9l-0.7,0.7c0.1,0.1,0.2,0.1,0.2,0.1
			C8.8,29.3,10,30.4,11,31.5z"/>
	</g>
</g>
</svg>
