<svg xmlns="http://www.w3.org/2000/svg" viewBox="0 0 41.409 44.48"><defs><style>.a{fill:#f4900c;}.b{fill:#db7803;}.c{fill:#ffac33;}</style></defs><title>1f950</title><path class="a" d="M27.544,13.911a23.735,23.735,0,0,1,3.628-.647c1.156-.116,3.5-0.244,4.456-0.381A0.83,0.83,0,0,0,35.8,12.83c1.093-3.321-.133-6.956-1.281-9.61a1.325,1.325,0,0,0,.559.454c-0.539-.167-1.011-1.3-1.556-1.476a25.144,25.144,0,0,0-10.9-1.09C25.381,2.606,28.155,6.065,27.544,13.911Z" transform="translate(-2.188 0)"/><path class="a" d="M17.735,21.222c-7.573-3.091-12.223-1.648-15.492.225a28.433,28.433,0,0,0,2.062,12.3,1.376,1.376,0,0,0,.541.533c1.795-1.78,4.124-4.118,10.233-2.795a2.412,2.412,0,0,1-.638.749,1.53,1.53,0,0,0,.719-1.147,21.721,21.721,0,0,1,3.245-10.962h0C18.166,20.478,17.945,20.846,17.735,21.222Z" transform="translate(-2.188 0)"/><path class="a" d="M37.823,11.671c-0.086.007-.182,0-0.266,0.01a2.418,2.418,0,0,0-.975.622,2.42,2.42,0,0,1,.977-0.622,13.32,13.32,0,0,1,4.767.535c3.054,0.872.454-6.383-6.2-8.271A14.213,14.213,0,0,1,37.823,11.671Z" transform="translate(-2.188 0)"/><path class="a" d="M5.888,35.1a0.929,0.929,0,0,0-.255-0.292,0.924,0.924,0,0,1,.254.293c1.873,4.026,5.8,8.376,8.575,9.164s2.745-.659,2-2.9c-0.786-2.367-2.346-5.61-2.255-8.055a16.247,16.247,0,0,0-8.191,2.051C5.974,35.272,5.928,35.185,5.888,35.1Z" transform="translate(-2.188 0)"/><path class="b" d="M17.735,21.222c0.21-.376.431-0.744,0.67-1.1-5.146-2.914-11.811-5.567-15.78-1.552a22.472,22.472,0,0,0-.382,2.877h0C5.512,19.574,10.161,18.131,17.735,21.222Z" transform="translate(-2.188 0)"/><path class="b" d="M15.08,31.482C8.971,30.158,6.642,32.5,4.847,34.277h0c0.267,0.178.567,0.348,0.786,0.53a0.929,0.929,0,0,1,.255.292c0.04,0.086.086,0.174,0.129,0.26a16.247,16.247,0,0,1,8.191-2.051h0a4.792,4.792,0,0,1,.04-0.62,0.962,0.962,0,0,1,.194-0.456A2.412,2.412,0,0,0,15.08,31.482Z" transform="translate(-2.188 0)"/><path class="b" d="M34.518,3.22c1.148,2.653,2.374,6.289,1.281,9.61h0a3.1,3.1,0,0,0,.784-0.528,2.418,2.418,0,0,1,.975-0.622c0.084-.009.179,0,0.266-0.01a14.213,14.213,0,0,0-1.7-7.725h0c-0.326-.092-0.651-0.185-1-0.25a0.525,0.525,0,0,1-.051-0.021A1.325,1.325,0,0,1,34.518,3.22Z" transform="translate(-2.188 0)"/><path class="c" d="M22.62,1.108A9.326,9.326,0,0,0,18.324,0C3.024,2.867,1.354,14.579,2.548,18.644c0.025-.026.052-0.048,0.077-0.074,3.97-4.015,10.634-1.362,15.78,1.552h0c1.334,0.755,2.568,1.527,3.624,2.205,2.208,1.417,3.754.9,4.453-2.006a41.148,41.148,0,0,0,1.063-6.411C28.155,6.065,25.381,2.606,22.62,1.108Z" transform="translate(-2.188 0)"/></svg>