<svg xmlns="http://www.w3.org/2000/svg" viewBox="0 0 45 45"><defs><style>.a{fill:#f5f8fa;}.b{fill:#ccd6dd;}.c{fill:#292f33;}</style></defs><title>26bd</title><polygon class="a" points="31.264 16.47 37.298 14.72 36.186 8.818 28.714 4.496 23.75 5.312 23.75 11.171 31.264 16.47"/><polygon class="a" points="21.25 10.66 21.25 5.449 14.594 4.362 8.529 8.712 7.325 14.618 13.188 16.472 21.25 10.66"/><path class="a" d="M29.069,28.008L33.381,33.8l5.837-2.559L41.372,22.5c-0.682-1.2-1.943-3.322-3.2-5.43l-6.01,1.744Z" transform="translate(0 0)"/><path class="a" d="M38.218,7.1L38.943,7.15a22.521,22.521,0,0,0-8.707-5.784l0.257,1.27Z" transform="translate(0 0)"/><path class="a" d="M41.427,32.726l0.453,1.2A22.382,22.382,0,0,0,44.992,22.8c-0.584.343-1,.563-1.295,0.7Z" transform="translate(0 0)"/><path class="a" d="M26.854,42.5H17.712l-1.73,1.538a22.519,22.519,0,0,0,12.83.058C28.245,43.636,27.6,43.107,26.854,42.5Z" transform="translate(0 0)"/><polygon class="a" points="31.297 35.186 27.436 30 16.875 30 13.008 35.564 17 40 27.272 40 31.297 35.186"/><path class="a" d="M0.783,24.111l-0.758-.648a22.373,22.373,0,0,0,2.657,9.7c0.1-.406.192-0.747,0.275-1.034Z" transform="translate(0 0)"/><path class="a" d="M12.085,18.745L6.53,16.99,3.1,23.093,5.26,31.064c0.788,0.4,2.408,1.239,5.758,2.985l3.893-5.6Z" transform="translate(0 0)"/><path class="a" d="M7.649,6.266L13.881,1.8l0.008,0,0.058-.106a22.512,22.512,0,0,0-7,4.562H7.5A1.226,1.226,0,0,1,7.649,6.266Z" transform="translate(0 0)"/><path class="b" d="M21.4,10.549a1.253,1.253,0,0,1,1.453-.007l0.893,0.63V5.312l-1.515.249-0.152.013-0.151-.013L21.25,5.449v5.21Z" transform="translate(0 0)"/><path class="b" d="M11.977,18.371a1.251,1.251,0,0,1,.469-1.364l0.743-.536L7.325,14.618,7.058,15.927a1.3,1.3,0,0,1-.135.364l-0.393.7,5.556,1.756Z" transform="translate(0 0)"/><path class="b" d="M31.867,16.9a1.251,1.251,0,0,1,.465,1.42l-0.167.5,6.01-1.744-0.543-.911a0.832,0.832,0,0,1-.116-0.28L37.3,14.72l-6.034,1.75Z" transform="translate(0 0)"/><path class="b" d="M28.685,29.149A1.251,1.251,0,0,1,27.5,30H27.436L31.3,35.186l0.484-.579a0.923,0.923,0,0,1,.343-0.256l1.257-.551-4.311-5.792Z" transform="translate(0 0)"/><path class="b" d="M16.3,30a1.251,1.251,0,0,1-1.2-.9l-0.19-.652-3.893,5.6,1.029,0.537a0.933,0.933,0,0,1,.264.2l0.7,0.774L16.875,30H16.3Z" transform="translate(0 0)"/><path class="b" d="M2.7,23.791a1.254,1.254,0,0,1-.871.618l-0.219.019a1.253,1.253,0,0,1-.812-0.3l-0.019-.016,2.174,8.013c0.416-1.44.647-1.5,1.208-1.5a0.987,0.987,0,0,1,.3.049c0.04,0.014.095,0.033,0.795,0.391L3.1,23.093Z" transform="translate(0 0)"/><path class="b" d="M26.254,41.65a0.938,0.938,0,0,1,.215-0.69l0.8-.96H17l0.936,1.04a0.943,0.943,0,0,1,.239.68,0.931,0.931,0,0,1-.314.648l-0.149.133h9.141l-0.26-.212A0.936,0.936,0,0,1,26.254,41.65Z" transform="translate(0 0)"/><path class="b" d="M39.728,31.017a0.934,0.934,0,0,1,.74-0.006,0.946,0.946,0,0,1,.514.534l0.445,1.181L43.7,23.507a1.541,1.541,0,0,1-.924.243H42.767A0.82,0.82,0,0,1,42,23.571a0.515,0.515,0,0,1-.143-0.189c-0.068-.143-0.241-0.456-0.486-0.885L39.218,31.24Z" transform="translate(0 0)"/><path class="b" d="M36.057,8.129a0.927,0.927,0,0,1,.219-0.787,0.951,0.951,0,0,1,.763-0.311L38.218,7.1,30.493,2.635,30.607,3.2a0.938,0.938,0,0,1-.766,1.111L28.714,4.5l7.472,4.322Z" transform="translate(0 0)"/><path class="b" d="M13.963,4.259a0.938,0.938,0,0,1-.67-1.378c0.183-.333.39-0.711,0.6-1.089l-0.008,0L7.649,6.266A1.24,1.24,0,0,1,8.726,7.75l-0.2.962,6.064-4.349Z" transform="translate(0 0)"/><path class="c" d="M28.685,29.149l0.384-1.141,3.095-9.2,0.167-.5a1.251,1.251,0,0,0-.465-1.42l-0.6-.425-7.514-5.3-0.893-.63a1.253,1.253,0,0,0-1.453.007l-0.154.111-8.062,5.812-0.743.536a1.251,1.251,0,0,0-.469,1.364l0.109,0.374,2.826,9.7L15.1,29.1a1.251,1.251,0,0,0,1.2.9H27.5A1.251,1.251,0,0,0,28.685,29.149Z" transform="translate(0 0)"/><path class="c" d="M0.8,24.127a1.253,1.253,0,0,0,.812.3l0.219-.019A1.254,1.254,0,0,0,2.7,23.791l0.392-.7,3.433-6.1,0.393-.7a1.3,1.3,0,0,0,.135-0.364l0.267-1.309,1.2-5.907,0.2-.962A1.24,1.24,0,0,0,7.649,6.266,1.226,1.226,0,0,0,7.5,6.25H6.947A22.429,22.429,0,0,0,0,22.5c0,0.323.011,0.643,0.024,0.963l0.758,0.648Z" transform="translate(0 0)"/><path class="c" d="M13.293,2.882a0.938,0.938,0,0,0,.67,1.378l0.631,0.1L21.25,5.449l0.682,0.111,0.151,0.013,0.152-.013,1.515-.249L28.714,4.5l1.126-.185A0.938,0.938,0,0,0,30.607,3.2l-0.114-.564-0.257-1.27a22.558,22.558,0,0,0-16.288.322l-0.058.106C13.683,2.171,13.476,2.549,13.293,2.882Z" transform="translate(0 0)"/><path class="c" d="M37.038,7.03a0.951,0.951,0,0,0-.763.311,0.927,0.927,0,0,0-.219.787l0.13,0.689,1.111,5.9,0.218,1.156a0.832,0.832,0,0,0,.116.28l0.543,0.911c1.255,2.108,2.515,4.234,3.2,5.43,0.245,0.43.418,0.742,0.486,0.885a0.515,0.515,0,0,0,.143.189,0.82,0.82,0,0,0,.766.179h0.008a1.541,1.541,0,0,0,.924-0.243c0.3-.14.711-0.361,1.295-0.7,0-.1.008-0.2,0.008-0.3A22.415,22.415,0,0,0,38.943,7.15L38.218,7.1Z" transform="translate(0 0)"/><path class="c" d="M17.861,42.367a0.931,0.931,0,0,0,.314-0.648,0.943,0.943,0,0,0-.239-0.68L17,40l-3.992-4.436-0.7-.774a0.933,0.933,0,0,0-.264-0.2l-1.029-.537c-3.35-1.746-4.97-2.583-5.758-2.985-0.7-.357-0.755-0.377-0.795-0.391a0.987,0.987,0,0,0-.3-0.049c-0.561,0-.791.059-1.208,1.5-0.083.286-.173,0.627-0.275,1.034a22.556,22.556,0,0,0,13.3,10.88l1.73-1.538Z" transform="translate(0 0)"/><path class="c" d="M40.981,31.544a0.946,0.946,0,0,0-.514-0.534,0.934,0.934,0,0,0-.74.006l-0.51.224L33.381,33.8l-1.257.551a0.923,0.923,0,0,0-.343.256l-0.484.579L27.272,40l-0.8.96a0.937,0.937,0,0,0,.125,1.327l0.26,0.212c0.743,0.607,1.392,1.136,1.959,1.6A22.546,22.546,0,0,0,41.88,33.928l-0.453-1.2Z" transform="translate(0 0)"/></svg>