<svg xmlns="http://www.w3.org/2000/svg" viewBox="0 0 45 45"><defs><style>.a{fill:#e1e8ed;}.b{fill:#b3bec4;}.c{fill:#dd2e44;}</style></defs><title>26be</title><circle class="a" cx="22.5" cy="22.5" r="22.5"/><path class="b" d="M33.75,22.5c0-7.562,2.241-12.779,6.007-14.434A22.63,22.63,0,0,0,37.98,6.181c-3.716,2.064-6.73,7.032-6.73,16.319s3.014,14.255,6.73,16.319a22.63,22.63,0,0,0,1.776-1.885C35.991,35.279,33.75,30.062,33.75,22.5Z" transform="translate(0 0)"/><path class="b" d="M5.243,8.066C9.008,9.722,11.25,14.938,11.25,22.5S9.008,35.278,5.243,36.934a22.63,22.63,0,0,0,1.776,1.885c3.716-2.064,6.731-7.032,6.731-16.319S10.735,8.245,7.019,6.181A22.62,22.62,0,0,0,5.243,8.066Z" transform="translate(0 0)"/><path class="c" d="M11.417,6.353a1.249,1.249,0,0,0-1.471.98,3.578,3.578,0,0,1-3.935,2.845,1.25,1.25,0,1,0-.46,2.458,4.5,4.5,0,0,0,.814.07A6.063,6.063,0,0,0,12.4,7.824,1.249,1.249,0,0,0,11.417,6.353Z" transform="translate(0 0)"/><path class="c" d="M15,12.1a1.242,1.242,0,0,0-1.707.44,6.047,6.047,0,0,1-4.838,2.867,1.126,1.126,0,1,0,.034,2.245,8.146,8.146,0,0,0,6.968-3.836A1.26,1.26,0,0,0,15,12.1Z" transform="translate(0 0)"/><path class="c" d="M16.677,21.456a1.25,1.25,0,0,0-2.1-1.351c-1.006,1.564-3.626,1.756-4.662,1.265a1.251,1.251,0,0,0-1.071,2.26,5.771,5.771,0,0,0,2.41.472A6.409,6.409,0,0,0,16.677,21.456Z" transform="translate(0 0)"/><path class="c" d="M15.76,28.887a1.251,1.251,0,0,0-1.639-.662c-2.288.975-4.485-.779-4.728-0.982a1.251,1.251,0,0,0-1.6,1.922A7.95,7.95,0,0,0,12.7,31.008a6.084,6.084,0,0,0,2.4-.482A1.25,1.25,0,0,0,15.76,28.887Z" transform="translate(0 0)"/><path class="c" d="M7.421,32.489a1.26,1.26,0,0,0-1.7-.515,1.183,1.183,0,0,0-.485,1.641A8.27,8.27,0,0,0,12.153,37.5h0.035a1.144,1.144,0,1,0,.034-2.28A6.1,6.1,0,0,1,7.421,32.489Z" transform="translate(0 0)"/><path class="c" d="M39.606,31.428a6.077,6.077,0,0,0-6.848,4.811,1.25,1.25,0,0,0,.981,1.47l0.246,0.025a1.248,1.248,0,0,0,1.224-1.005,3.576,3.576,0,0,1,3.935-2.845A1.25,1.25,0,1,0,39.606,31.428Z" transform="translate(0 0)"/><path class="c" d="M36.581,26.017l-0.14.006c-1.762.081-4.427,0.2-6.742,4.211a1.25,1.25,0,1,0,2.165,1.25c1.631-2.824,3.188-2.894,4.693-2.964l0.144-.006A1.25,1.25,0,0,0,36.581,26.017Z" transform="translate(0 0)"/><path class="c" d="M28.48,22.606a1.25,1.25,0,0,0,2.1,1.351c1.006-1.564,3.628-1.757,4.664-1.265a1.25,1.25,0,0,0,1.07-2.26C34.3,19.479,30.249,19.851,28.48,22.606Z" transform="translate(0 0)"/><path class="c" d="M29.4,15.176a1.25,1.25,0,0,0,1.639.663c2.286-.966,4.484.779,4.726,0.981a1.25,1.25,0,1,0,1.6-1.92,7.282,7.282,0,0,0-7.3-1.362A1.249,1.249,0,0,0,29.4,15.176Z" transform="translate(0 0)"/><path class="c" d="M37.736,11.545a1.208,1.208,0,0,0,1.7.465,1.271,1.271,0,0,0,.486-1.72A8.388,8.388,0,0,0,33,6.25H32.968a1.29,1.29,0,0,0-.034,2.577A6.094,6.094,0,0,1,37.736,11.545Z" transform="translate(0 0)"/></svg>