<?xml version="1.0" encoding="utf-8"?>
<!-- Generator: Adobe Illustrator 15.0.2, SVG Export Plug-In  -->
<!DOCTYPE svg PUBLIC "-//W3C//DTD SVG 1.1//EN" "http://www.w3.org/Graphics/SVG/1.1/DTD/svg11.dtd" [
	<!ENTITY ns_flows "http://ns.adobe.com/Flows/1.0/">
]>
<svg version="1.1"
	 xmlns="http://www.w3.org/2000/svg" xmlns:xlink="http://www.w3.org/1999/xlink" xmlns:a="http://ns.adobe.com/AdobeSVGViewerExtensions/3.0/"
	 viewBox="-0.9 -0.2 30 30"
	 overflow="visible" enable-background="new -0.9 -0.2 30 30" xml:space="preserve">
<defs>
</defs>
<path fill="#9D7D2D" d="M0.4,15.8c2.2-2.8,7,4.6,13.7,4.6c5.9,0,11.5-6.9,13.6-4.6c2.7,3-7,9.2-13.6,9.2C7.4,25-2.2,19.1,0.4,15.8z"
	/>
<radialGradient id="SVGID_1_" cx="14.1982" cy="15.6494" r="12.4244" gradientTransform="matrix(-1.0721 0 0 -1.1578 29.4092 33.7687)" gradientUnits="userSpaceOnUse">
	<stop  offset="0" style="stop-color:#FDD8B6"/>
	<stop  offset="0.1752" style="stop-color:#FCD5B1"/>
	<stop  offset="0.391" style="stop-color:#F8CEA2"/>
	<stop  offset="0.6273" style="stop-color:#F3C189"/>
	<stop  offset="0.6575" style="stop-color:#F2BF85"/>
	<stop  offset="0.6994" style="stop-color:#EEBB82"/>
	<stop  offset="0.7453" style="stop-color:#E0AE7A"/>
	<stop  offset="0.7932" style="stop-color:#CA9A6C"/>
	<stop  offset="0.8423" style="stop-color:#AC7D58"/>
	<stop  offset="0.892" style="stop-color:#85583F"/>
	<stop  offset="0.9337" style="stop-color:#5E3326"/>
	<stop  offset="0.9498" style="stop-color:#593124"/>
	<stop  offset="0.9691" style="stop-color:#4A2B1E"/>
	<stop  offset="0.9899" style="stop-color:#322014"/>
	<stop  offset="1" style="stop-color:#241A0E"/>
</radialGradient>
<path fill="url(#SVGID_1_)" d="M13.5,2.5C6.9,2.5,2.3,7.9,1.7,15.3c-0.6,7.3,5.6,13.5,12.6,13.5c6.4,0,13.4-6.3,12.2-13.5
	C25.2,7.6,20,2.5,13.5,2.5z"/>
<linearGradient id="SVGID_2_" gradientUnits="userSpaceOnUse" x1="14.167" y1="16.2295" x2="14.167" y2="4.882812e-04">
	<stop  offset="0" style="stop-color:#422A0D"/>
	<stop  offset="0.1756" style="stop-color:#452E12"/>
	<stop  offset="0.3853" style="stop-color:#4F3A21"/>
	<stop  offset="0.6124" style="stop-color:#5F4E39"/>
	<stop  offset="0.8503" style="stop-color:#75695A"/>
	<stop  offset="1" style="stop-color:#857D73"/>
</linearGradient>
<path fill="url(#SVGID_2_)" d="M26,15.4c-0.4-2.8-1.1-3.2-1.9-3.7c-0.6-0.4-1.3-0.8-1.9-2c-0.7,0.3-1.3,0.6-1.9,0.8
	c-2.2,1-4.2,1.9-8.1,1.9h-0.5l0-0.9c0-0.2,0-0.3,0-0.5c-2.1,0.9-4.3,1-5.1,1c-0.8,0-1.4-0.1-1.7-0.2l-0.4-0.1l0.1-0.4
	c0.1-0.4,0.1-0.9,0-1.1c-1.1,0.8-1.6,2.6-2,3.8c-0.2,0.8-0.4,1.3-0.6,1.6L1.7,16l-0.3-0.3C0,14.5,0,13,0.2,11C0.6,4.1,5.8,0,13.9,0
	c10.5,0,14.3,5.9,14.3,11.4c0,2.2-0.1,3.2-1.4,4.3l-0.7,0.6L26,15.4z"/>
<radialGradient id="SVGID_3_" cx="14.167" cy="7.8916" r="10.9225" gradientTransform="matrix(1 0 0 0.6 0 3.1566)" gradientUnits="userSpaceOnUse">
	<stop  offset="5.524862e-03" style="stop-color:#000000"/>
	<stop  offset="1" style="stop-color:#000000"/>
</radialGradient>
<path fill="url(#SVGID_3_)" d="M0.7,11c-0.1,1.9-0.1,3.2,1.1,4.3c0.6-0.6,0.7-4.6,3.1-5.7c0.6,0.2,0.3,1.9,0.3,1.9
	c0.6,0.2,3.8,0.3,6.6-0.8c0.6-0.3,0.6,0.2,0.6,1.4c5,0,6.9-1.7,10.2-2.9c1.4,3.3,3.2,1,4,6.2c1.1-0.9,1.2-1.7,1.2-3.9
	c0-5.4-3.7-10.9-13.8-10.9C5.3,0.5,1.1,5.1,0.7,11z"/>
<linearGradient id="SVGID_4_" gradientUnits="userSpaceOnUse" x1="14.3193" y1="25.2969" x2="14.3193" y2="22.5908">
	<stop  offset="0" style="stop-color:#DE7B35"/>
	<stop  offset="1.889086e-02" style="stop-color:#D27433"/>
	<stop  offset="9.639543e-02" style="stop-color:#A85C2A"/>
	<stop  offset="0.1803" style="stop-color:#824622"/>
	<stop  offset="0.2696" style="stop-color:#62341B"/>
	<stop  offset="0.3661" style="stop-color:#492615"/>
	<stop  offset="0.4722" style="stop-color:#351A11"/>
	<stop  offset="0.5933" style="stop-color:#27120E"/>
	<stop  offset="0.742" style="stop-color:#1E0D0D"/>
	<stop  offset="1" style="stop-color:#1C0C0C"/>
</linearGradient>
<path fill="url(#SVGID_4_)" d="M19.1,23.2c-1.4,1-1.9,2.1-4.8,2.1c-2.9,0-3.1-1.1-4.7-2.1c0-0.8,1.8-0.6,4.7-0.6
	C17.2,22.6,19.1,22.4,19.1,23.2z"/>
<radialGradient id="SVGID_5_" cx="14.3193" cy="20.0723" r="1.5248" gradientUnits="userSpaceOnUse">
	<stop  offset="0" style="stop-color:#5F4A1D"/>
	<stop  offset="0.3762" style="stop-color:#644D1E"/>
	<stop  offset="0.8247" style="stop-color:#735622"/>
	<stop  offset="0.9946" style="stop-color:#7A5A24"/>
</radialGradient>
<path fill="url(#SVGID_5_)" d="M12.4,19.4c0.3-0.4,1,0.7,1.9,0.7c0.8,0,1.6-1.1,1.9-0.7c0.4,0.5-1,1.5-1.9,1.5
	C13.4,20.9,12,19.9,12.4,19.4z"/>
<radialGradient id="SVGID_6_" cx="8.4404" cy="16.1895" r="4.9329" gradientTransform="matrix(1 0 0 0.5778 0 6.9116)" gradientUnits="userSpaceOnUse">
	<stop  offset="0.5414" style="stop-color:#524131"/>
	<stop  offset="0.556" style="stop-color:#584635;stop-opacity:0.9683"/>
	<stop  offset="0.7086" style="stop-color:#93735B;stop-opacity:0.6356"/>
	<stop  offset="0.8387" style="stop-color:#BE9577;stop-opacity:0.3518"/>
	<stop  offset="0.94" style="stop-color:#D8A988;stop-opacity:0.1309"/>
	<stop  offset="1" style="stop-color:#E2B18E;stop-opacity:0"/>
</radialGradient>
<path fill="url(#SVGID_6_)" d="M8.6,19.7c-3.3,0-5.8-1.5-5.8-3.4c0-1.9,2.5-3.4,5.8-3.4c2.7,0,4.5,1.1,5.3,3.1
	c0.3,0.6,0.1,1.3-0.4,1.9C12.6,18.9,10.6,19.7,8.6,19.7z"/>
<path fill="#F5F5F5" d="M5.8,17c-0.3-0.7,1.1-1.7,2.8-1.7s3.1,0.8,3.1,1.7s-1.3,1.6-3.1,1.6C7,18.6,6.1,17.9,5.8,17z"/>
<radialGradient id="SVGID_7_" cx="19.5674" cy="16.1895" r="4.932" gradientTransform="matrix(1 0 0 0.5778 0 6.9116)" gradientUnits="userSpaceOnUse">
	<stop  offset="0.5414" style="stop-color:#524131"/>
	<stop  offset="0.556" style="stop-color:#584635;stop-opacity:0.9683"/>
	<stop  offset="0.7086" style="stop-color:#93735B;stop-opacity:0.6356"/>
	<stop  offset="0.8387" style="stop-color:#BE9577;stop-opacity:0.3518"/>
	<stop  offset="0.94" style="stop-color:#D8A988;stop-opacity:0.1309"/>
	<stop  offset="1" style="stop-color:#E2B18E;stop-opacity:0"/>
</radialGradient>
<path fill="url(#SVGID_7_)" d="M19.4,19.7c-2,0-4-0.7-4.9-1.8c-0.5-0.6-0.7-1.3-0.4-1.9c0.8-2,2.7-3.1,5.3-3.1
	c3.3,0,5.8,1.5,5.8,3.4C25.2,18.2,22.7,19.7,19.4,19.7z"/>
<path fill="#F5F5F5" d="M22.5,17c0.3-0.7-1.1-1.7-2.8-1.7c-1.7,0-3.1,0.8-3.1,1.7s1.5,1.6,3.2,1.6C21.4,18.6,22.2,17.9,22.5,17z"/>
<g>
	<g>
		<radialGradient id="SVGID_8_" cx="8.8188" cy="20.0996" r="4.9852" gradientUnits="userSpaceOnUse">
			<stop  offset="0" style="stop-color:#DEC4A7"/>
			<stop  offset="0.5169" style="stop-color:#CAA275"/>
			<stop  offset="0.7989" style="stop-color:#5A3626"/>
			<stop  offset="0.9457" style="stop-color:#2E2E2E"/>
		</radialGradient>
		<circle fill="url(#SVGID_8_)" cx="8.7" cy="16.9" r="1.8"/>
		<radialGradient id="SVGID_9_" cx="19.6816" cy="20.0996" r="4.9875" gradientUnits="userSpaceOnUse">
			<stop  offset="0" style="stop-color:#DEC4A7"/>
			<stop  offset="0.5109" style="stop-color:#CAA275"/>
			<stop  offset="0.7989" style="stop-color:#5A3926"/>
			<stop  offset="0.9457" style="stop-color:#2E2E2E"/>
		</radialGradient>
		<circle fill="url(#SVGID_9_)" cx="19.6" cy="16.9" r="1.8"/>
	</g>
</g>
<ellipse fill="#FFFFFF" cx="8.8" cy="16.7" rx="0.7" ry="0.6"/>
<ellipse fill="#FFFFFF" cx="19.7" cy="16.7" rx="0.7" ry="0.6"/>
<circle fill="#160A0B" cx="8.8" cy="17.6" r="0.7"/>
<path fill="#160A0B" d="M20.5,17.6c0,0.4-0.4,0.7-0.8,0.7c-0.4,0-0.7-0.3-0.7-0.7c0-0.4,0.3-0.7,0.7-0.7
	C20.1,16.9,20.5,17.2,20.5,17.6z"/>
<radialGradient id="SVGID_10_" cx="13.3901" cy="5.9229" r="7.3784" gradientTransform="matrix(1.1482 -0.1117 4.418476e-02 0.4544 -2.2422 4.3411)" gradientUnits="userSpaceOnUse">
	<stop  offset="0" style="stop-color:#632F19"/>
	<stop  offset="0.2755" style="stop-color:#5B2B16;stop-opacity:0.9076"/>
	<stop  offset="0.7042" style="stop-color:#451F0F;stop-opacity:0.7638"/>
	<stop  offset="0.9227" style="stop-color:#37180B;stop-opacity:0.6906"/>
	<stop  offset="0.9426" style="stop-color:#32160A;stop-opacity:0.5129"/>
	<stop  offset="0.9646" style="stop-color:#251007;stop-opacity:0.3158"/>
	<stop  offset="0.9877" style="stop-color:#0F0703;stop-opacity:0.1102"/>
	<stop  offset="1" style="stop-color:#000000;stop-opacity:0"/>
</radialGradient>
<path fill="url(#SVGID_10_)" d="M24.4,4.5c0.2,2.5-4.5,5.1-10.6,5.7c-6.1,0.6-11.2-1-11.5-3.5s4.5-5.1,10.6-5.7
	C19,0.3,24.2,1.9,24.4,4.5z"/>
</svg>
