<?xml version="1.0" encoding="utf-8"?>
<!-- Generator: Adobe Illustrator 15.0.2, SVG Export Plug-In  -->
<!DOCTYPE svg PUBLIC "-//W3C//DTD SVG 1.1//EN" "http://www.w3.org/Graphics/SVG/1.1/DTD/svg11.dtd" [
	<!ENTITY ns_flows "http://ns.adobe.com/Flows/1.0/">
]>
<svg version="1.1"
	 xmlns="http://www.w3.org/2000/svg" xmlns:xlink="http://www.w3.org/1999/xlink" xmlns:a="http://ns.adobe.com/AdobeSVGViewerExtensions/3.0/"
	 viewBox="-0.4 -0.4 30 30"
	 overflow="visible" enable-background="new -0.4 -0.4 30 30" xml:space="preserve">
<defs>
</defs>
<linearGradient id="SVGID_1_" gradientUnits="userSpaceOnUse" x1="14.6328" y1="29.3325" x2="14.6328" y2="4.882812e-04">
	<stop  offset="1.657501e-02" style="stop-color:#BD0404"/>
	<stop  offset="0.3892" style="stop-color:#A10209"/>
	<stop  offset="0.7564" style="stop-color:#8C010E"/>
	<stop  offset="1" style="stop-color:#85000F"/>
</linearGradient>
<path fill="url(#SVGID_1_)" d="M29.1,10.5c-1.1,7.3-9,13.7-14.5,18.8C9.2,24.1,1.3,17.7,0.2,10.6C-0.7,5.1,1.9,0.9,5.7,0.1
	C8-0.4,12,1.4,14.6,4.5c2.6-3.1,6.3-5,8.9-4.3C27.4,1.2,30,4.3,29.1,10.5z"/>
<radialGradient id="SVGID_2_" cx="14.6357" cy="14.4673" r="12.7437" gradientUnits="userSpaceOnUse">
	<stop  offset="1.657501e-02" style="stop-color:#DB0505"/>
	<stop  offset="0.3251" style="stop-color:#D80506"/>
	<stop  offset="0.5765" style="stop-color:#CE0409"/>
	<stop  offset="0.8071" style="stop-color:#BD020D"/>
	<stop  offset="1" style="stop-color:#A80013"/>
</radialGradient>
<path fill="url(#SVGID_2_)" d="M14.2,26.7C11,23.5,3,17.5,1.8,10.3C1.2,6.1,3,2.7,6,2.1C6.2,2,6.5,2,6.8,2c1.9,0,4.7,1.5,6.6,3.8
	l1.2,1.5l1.2-1.5c1.7-2,4.2-3.9,6.3-3.9c0.4,0,0.7,0,1,0.1c3.4,0.9,5,3.5,4.3,8.2c-0.8,5.1-5.6,10.9-12.3,16.5L14.6,27L14.2,26.7z"
	/>
<linearGradient id="SVGID_3_" gradientUnits="userSpaceOnUse" x1="14.6357" y1="27.8989" x2="14.6357" y2="1.2178">
	<stop  offset="0.4088" style="stop-color:#C93918;stop-opacity:0"/>
	<stop  offset="0.4385" style="stop-color:#D14F32;stop-opacity:4.671769e-02"/>
	<stop  offset="0.4937" style="stop-color:#DD725D;stop-opacity:0.1335"/>
	<stop  offset="0.5517" style="stop-color:#E79082;stop-opacity:0.2248"/>
	<stop  offset="0.612" style="stop-color:#F0A9A0;stop-opacity:0.3198"/>
	<stop  offset="0.6755" style="stop-color:#F7BCB7;stop-opacity:0.4196"/>
	<stop  offset="0.7434" style="stop-color:#FBC9C7;stop-opacity:0.5265"/>
	<stop  offset="0.8189" style="stop-color:#FED1D1;stop-opacity:0.6454"/>
	<stop  offset="0.9171" style="stop-color:#FFD4D4;stop-opacity:0.8"/>
	<stop  offset="0.9545" style="stop-color:#FFD9D9;stop-opacity:0.8903"/>
	<stop  offset="0.9998" style="stop-color:#FFE8E8;stop-opacity:0.9995"/>
	<stop  offset="1" style="stop-color:#FFE8E8"/>
</linearGradient>
<path fill="url(#SVGID_3_)" d="M13.7,27.2c-0.6-0.6-1.3-1.2-2-1.9c-3.8-3.5-9.6-8.7-10.6-14.9c-0.7-4.5,1.3-8.3,4.7-9
	c0.3-0.1,0.6-0.1,1-0.1c2.2,0,5.2,1.7,7.1,4l0.7,0.8l0.7-0.8c1.7-2,4.4-4.1,6.8-4.1c0.4,0,0.8,0.1,1.2,0.2c3.9,1.1,5.5,4.1,4.8,8.9
	c-0.9,6.1-7.3,12.6-12.6,16.9l-0.9,0.7L13.7,27.2z"/>
</svg>
