<?xml version="1.0" encoding="utf-8"?>
<!-- Generator: Adobe Illustrator 15.0.2, SVG Export Plug-In  -->
<!DOCTYPE svg PUBLIC "-//W3C//DTD SVG 1.1//EN" "http://www.w3.org/Graphics/SVG/1.1/DTD/svg11.dtd" [
	<!ENTITY ns_flows "http://ns.adobe.com/Flows/1.0/">
]>
<svg version="1.1"
	 xmlns="http://www.w3.org/2000/svg" xmlns:xlink="http://www.w3.org/1999/xlink" xmlns:a="http://ns.adobe.com/AdobeSVGViewerExtensions/3.0/"
	 viewBox="-1 -0.9 34 29" overflow="visible" enable-background="new -1 -0.9 34 29"
	 xml:space="preserve">
<defs>
</defs>
<linearGradient id="SVGID_1_" gradientUnits="userSpaceOnUse" x1="7.0317" y1="27.54" x2="7.0317" y2="18.6875">
	<stop  offset="5.618000e-03" style="stop-color:#E6E6E6"/>
	<stop  offset="0.5562" style="stop-color:#C0C0C0"/>
	<stop  offset="1" style="stop-color:#A6A6A6"/>
</linearGradient>
<path fill="url(#SVGID_1_)" d="M11.5,27.1c0,0,3.4-1,2.4-3.5s-3.1-4.2-7.9-4.4s-6-0.5-6-0.5s-0.1,5.2,1.9,7S8.6,28.1,11.5,27.1z"/>
<radialGradient id="SVGID_2_" cx="7.0435" cy="23.3623" r="4.8138" gradientTransform="matrix(0.9659 0.2588 -0.1294 0.483 3.2633 10.2562)" gradientUnits="userSpaceOnUse">
	<stop  offset="0" style="stop-color:#E8EBE8"/>
	<stop  offset="0.5379" style="stop-color:#E6E9E6"/>
	<stop  offset="0.7317" style="stop-color:#E0E2E0"/>
	<stop  offset="0.8694" style="stop-color:#D5D7D5"/>
	<stop  offset="0.9803" style="stop-color:#C6C6C6"/>
	<stop  offset="1" style="stop-color:#C2C2C2"/>
</radialGradient>
<path fill="url(#SVGID_2_)" d="M8.3,26.5c-2.3,0-4.6-0.6-5.7-1.6C1.5,24,1.1,21.7,1,20.2c0.5,0.3,0.9,0.2,1.5,0.2
	c0.7,0,2.2-0.2,3.5-0.2c4.9,0,6.3,2.1,7,3.7c0.2,0.5,0.1,0.8,0,0.9c-0.3,0.7-1.4,1.1-1.8,1.2C10.4,26.4,9.4,26.5,8.3,26.5L8.3,26.5z
	"/>
<linearGradient id="SVGID_3_" gradientUnits="userSpaceOnUse" x1="9.2935" y1="26.4932" x2="9.9503" y2="22.7679">
	<stop  offset="5.618000e-03" style="stop-color:#E6E6E6"/>
	<stop  offset="0.4433" style="stop-color:#CFCFCF"/>
	<stop  offset="1" style="stop-color:#ADADAD"/>
</linearGradient>
<path fill="url(#SVGID_3_)" d="M13.3,25c-2.3-3.6-7.1-2-7.1-2s1.1,3.6,4.8,3.8l0.9-0.5c0,0-3.7-1-3.9-2.5c0,0,3.1-0.2,4.5,2.1
	L13.3,25z"/>
<linearGradient id="SVGID_4_" gradientUnits="userSpaceOnUse" x1="-10.9673" y1="27.541" x2="-10.9673" y2="18.6885" gradientTransform="matrix(-1 0 0 1 14.0654 0)">
	<stop  offset="5.618000e-03" style="stop-color:#E6E6E6"/>
	<stop  offset="0.5562" style="stop-color:#C0C0C0"/>
	<stop  offset="1" style="stop-color:#A6A6A6"/>
</linearGradient>
<path fill="url(#SVGID_4_)" d="M20.6,27.1c0,0-3.4-1-2.4-3.5s3.1-4.2,7.9-4.4s6-0.5,6-0.5s0.1,5.2-1.9,7S23.4,28.1,20.6,27.1z"/>
<radialGradient id="SVGID_5_" cx="-10.9565" cy="23.3623" r="4.8135" gradientTransform="matrix(-0.9659 0.2588 0.1294 0.483 11.4155 14.9149)" gradientUnits="userSpaceOnUse">
	<stop  offset="0" style="stop-color:#E8EBE8"/>
	<stop  offset="0.5379" style="stop-color:#E6E9E6"/>
	<stop  offset="0.7317" style="stop-color:#E0E2E0"/>
	<stop  offset="0.8694" style="stop-color:#D5D7D5"/>
	<stop  offset="0.9803" style="stop-color:#C6C6C6"/>
	<stop  offset="1" style="stop-color:#C2C2C2"/>
</radialGradient>
<path fill="url(#SVGID_5_)" d="M23.8,26.5c2.3,0,4.6-0.6,5.7-1.6c1.1-0.9,1.4-3.3,1.5-4.8c-0.5,0.3-0.9,0.2-1.5,0.2
	c-0.7,0-2.2-0.2-3.5-0.2c-4.9,0-6.3,2.1-7,3.7c-0.2,0.5-0.1,0.8,0,0.9c0.3,0.7,1.4,1.1,1.8,1.2C21.7,26.4,22.7,26.5,23.8,26.5
	L23.8,26.5z"/>
<linearGradient id="SVGID_6_" gradientUnits="userSpaceOnUse" x1="-8.7065" y1="26.4932" x2="-8.0497" y2="22.7679" gradientTransform="matrix(-1 0 0 1 14.0654 0)">
	<stop  offset="5.618000e-03" style="stop-color:#E6E6E6"/>
	<stop  offset="0.4433" style="stop-color:#CFCFCF"/>
	<stop  offset="1" style="stop-color:#ADADAD"/>
</linearGradient>
<path fill="url(#SVGID_6_)" d="M18.8,25c2.3-3.6,7.1-2,7.1-2s-1.1,3.6-4.8,3.8l-0.9-0.5c0,0,3.7-1,3.9-2.5c0,0-3.1-0.2-4.5,2.1
	L18.8,25z"/>
<radialGradient id="SVGID_7_" cx="15.1128" cy="15.5293" r="9.1161" gradientTransform="matrix(-1.0721 0 0 -1.1578 32.3635 33.5095)" gradientUnits="userSpaceOnUse">
	<stop  offset="0" style="stop-color:#FDD8B6"/>
	<stop  offset="0.1752" style="stop-color:#FCD5B1"/>
	<stop  offset="0.391" style="stop-color:#F8CCA2"/>
	<stop  offset="0.6273" style="stop-color:#F3BC89"/>
	<stop  offset="0.6575" style="stop-color:#F2BA85"/>
	<stop  offset="0.6994" style="stop-color:#EEB682"/>
	<stop  offset="0.7453" style="stop-color:#E0AA7A"/>
	<stop  offset="0.7932" style="stop-color:#CA966C"/>
	<stop  offset="0.8423" style="stop-color:#AC7A58"/>
	<stop  offset="0.892" style="stop-color:#85563F"/>
	<stop  offset="0.9337" style="stop-color:#5E3326"/>
	<stop  offset="0.9498" style="stop-color:#593124"/>
	<stop  offset="0.9691" style="stop-color:#4A2B1E"/>
	<stop  offset="0.9899" style="stop-color:#322014"/>
	<stop  offset="1" style="stop-color:#241A0E"/>
</radialGradient>
<path fill="url(#SVGID_7_)" d="M15.6,5.9c-4.8,0-8.2,4-8.6,9.4c-0.4,5.3,4.1,9.9,9.3,9.9c4.7,0,9.9-4.7,8.9-9.9
	C24.2,9.6,20.4,5.9,15.6,5.9z"/>
<linearGradient id="SVGID_8_" gradientUnits="userSpaceOnUse" x1="15.9683" y1="23.0244" x2="15.9683" y2="21.0371">
	<stop  offset="0" style="stop-color:#DE9D6F"/>
	<stop  offset="7.374781e-02" style="stop-color:#C28A5F"/>
	<stop  offset="0.1733" style="stop-color:#A2764E"/>
	<stop  offset="0.2824" style="stop-color:#896440"/>
	<stop  offset="0.4025" style="stop-color:#755735"/>
	<stop  offset="0.5395" style="stop-color:#674E2D"/>
	<stop  offset="0.7079" style="stop-color:#5E4928"/>
	<stop  offset="1" style="stop-color:#5C4727"/>
</linearGradient>
<path fill="url(#SVGID_8_)" d="M18,21.5c-0.6,0.8-0.8,1.5-2,1.5c-1.2,0-1.3-0.8-2-1.5c0-0.6,0.8-0.4,2-0.4
	C17.2,21.1,18,20.9,18,21.5z"/>
<radialGradient id="SVGID_9_" cx="12.519" cy="17.6104" r="3.6206" gradientTransform="matrix(0.9 0 0 0.5489 0.5937 7.865)" gradientUnits="userSpaceOnUse">
	<stop  offset="0.5414" style="stop-color:#8D9694"/>
	<stop  offset="0.5674" style="stop-color:#939894;stop-opacity:0.9434"/>
	<stop  offset="0.76" style="stop-color:#BEA691;stop-opacity:0.5235"/>
	<stop  offset="0.9107" style="stop-color:#D8AE8F;stop-opacity:0.1948"/>
	<stop  offset="1" style="stop-color:#E2B18E;stop-opacity:0"/>
</radialGradient>
<path fill="url(#SVGID_9_)" d="M12,19.9c-2.1,0-3.8-1-3.8-2.4c0-1.3,1.7-2.4,3.8-2.4c1.8,0,3,0.7,3.5,2.1c0.2,0.4,0.1,0.9-0.3,1.3
	C14.6,19.4,13.3,19.9,12,19.9z"/>
<path fill="#BCD3D8" d="M10.1,18.1c-0.2-0.5,0.7-1.2,1.9-1.2c1.1,0,2.1,0.5,2.1,1.2s-0.9,1.1-2,1.1C10.9,19.1,10.3,18.7,10.1,18.1z"
	/>
<radialGradient id="SVGID_10_" cx="21.5542" cy="17.6104" r="3.62" gradientTransform="matrix(0.9 0 0 0.5489 0.5937 7.865)" gradientUnits="userSpaceOnUse">
	<stop  offset="0.5414" style="stop-color:#8D9694"/>
	<stop  offset="0.5674" style="stop-color:#939894;stop-opacity:0.9434"/>
	<stop  offset="0.76" style="stop-color:#BEA691;stop-opacity:0.5235"/>
	<stop  offset="0.9107" style="stop-color:#D8AE8F;stop-opacity:0.1948"/>
	<stop  offset="1" style="stop-color:#E2B18E;stop-opacity:0"/>
</radialGradient>
<path fill="url(#SVGID_10_)" d="M19.9,19.9c-1.3,0-2.6-0.5-3.2-1.3c-0.3-0.4-0.5-0.9-0.3-1.3c0.5-1.4,1.8-2.1,3.5-2.1
	c2.2,0,3.8,1,3.8,2.4C23.7,18.9,22,19.9,19.9,19.9z"/>
<path fill="#BCD3D8" d="M21.9,18.1c0.2-0.5-0.7-1.2-1.9-1.2S18,17.4,18,18.1s1,1.1,2.1,1.1C21.2,19.1,21.7,18.7,21.9,18.1z"/>
<g>
	<g>
		
			<radialGradient id="SVGID_11_" cx="13.2407" cy="20.2939" r="3.6602" gradientTransform="matrix(0.99 0 0 0.95 -0.9515 0.8814)" gradientUnits="userSpaceOnUse">
			<stop  offset="0" style="stop-color:#C1DBDE"/>
			<stop  offset="0.5109" style="stop-color:#75A7CA"/>
			<stop  offset="0.8043" style="stop-color:#263E5A"/>
			<stop  offset="0.9457" style="stop-color:#2E2E2E"/>
		</radialGradient>
		<ellipse fill="url(#SVGID_11_)" cx="12.1" cy="18" rx="1.3" ry="1.2"/>
		
			<radialGradient id="SVGID_12_" cx="21.1919" cy="20.3301" r="3.6588" gradientTransform="matrix(0.99 0 0 0.95 -0.9515 0.8814)" gradientUnits="userSpaceOnUse">
			<stop  offset="0" style="stop-color:#C1DBDE"/>
			<stop  offset="0.5109" style="stop-color:#75A7CA"/>
			<stop  offset="0.8043" style="stop-color:#263E5A"/>
			<stop  offset="0.9457" style="stop-color:#2E2E2E"/>
		</radialGradient>
		<path fill="url(#SVGID_12_)" d="M21.3,18c0,0.7-0.6,1.2-1.3,1.2c-0.7,0-1.3-0.6-1.3-1.2c0-0.7,0.6-1.2,1.3-1.2
			C20.7,16.8,21.3,17.3,21.3,18z"/>
	</g>
</g>
<ellipse fill="#FFFFFF" cx="12.1" cy="17.9" rx="0.5" ry="0.4"/>
<ellipse fill="#FFFFFF" cx="20.1" cy="17.9" rx="0.5" ry="0.4"/>
<ellipse fill="#160A0B" cx="12.1" cy="18.5" rx="0.5" ry="0.5"/>
<path fill="#160A0B" d="M20.6,18.5c0,0.3-0.3,0.5-0.5,0.5c-0.3,0-0.5-0.2-0.5-0.5c0-0.3,0.2-0.5,0.5-0.5
	C20.4,18,20.6,18.2,20.6,18.5z"/>
<linearGradient id="SVGID_13_" gradientUnits="userSpaceOnUse" x1="-3.7544" y1="17.2305" x2="-3.7544" y2="3.021" gradientTransform="matrix(-1 0 0 1 12.29 0)">
	<stop  offset="0" style="stop-color:#422A0D"/>
	<stop  offset="0.1776" style="stop-color:#472E0E"/>
	<stop  offset="0.3897" style="stop-color:#563811"/>
	<stop  offset="0.6194" style="stop-color:#6E4917"/>
	<stop  offset="0.86" style="stop-color:#8F611E"/>
	<stop  offset="1" style="stop-color:#A67123"/>
</linearGradient>
<path fill="url(#SVGID_13_)" d="M7.4,15.3c0.3-1.3,0.7-1.7,1.2-2.1c0.4-0.3,1.2-0.8,1.6-1.6c0.5,0.2,0.9,0.5,1.3,0.8
	c1.6,1.2,3.2,1.6,6,1.6H18l-0.1-1.5c0-0.1,0-0.3,0-0.4c1,1.5,3.2,1.8,3.8,1.8c0.6,0,2,0.1,2.3,0c0,0,0.3,0.2,0.5,1.1
	c0.2,0.6,0.3,1.4,0.5,1.6l0.2,0.2l0.2-0.2c1-0.9,1.4-3.2,1.3-4.7C26.5,7,22.8,3,16,3C8.3,3,5.9,7.3,5.3,11.4
	c-0.2,1.6,0.1,3.5,0.9,4.8c0.2,0.3,1,1,1,1L7.4,15.3z"/>
<linearGradient id="SVGID_14_" gradientUnits="userSpaceOnUse" x1="16.0444" y1="15.8271" x2="16.0444" y2="3.7217">
	<stop  offset="0" style="stop-color:#917613"/>
	<stop  offset="0.2482" style="stop-color:#967818"/>
	<stop  offset="0.5446" style="stop-color:#A57E25"/>
	<stop  offset="0.8644" style="stop-color:#BD873B"/>
	<stop  offset="1" style="stop-color:#C98C47"/>
</linearGradient>
<path fill="url(#SVGID_14_)" d="M25.1,15c-0.3-1-0.7-1.4-0.8-1.5l-0.6-0.1c0,0-1.8,0-2,0c-0.5,0-2.4-0.3-3.2-1.5l-1.2-1.9
	c0,0-0.1,2.6-0.1,2.7l0.1,0.8c-2.5,0.5-5.3-1.6-5.3-1.6c-0.4-0.3-0.8-0.6-1.3-0.8L10,10.7l-0.3,0.6c-0.4,0.7-1.1,1.2-1.4,1.3
	c-0.8,0.5-1.2,1.2-1.6,2.5l-0.1,0.5c-0.6-1.2-0.9-2.8-0.7-4.1c0.8-5.3,4.1-7.8,10-7.8c5.9,0,9.7,3.2,10.1,8.3
	c0.1,1.2-0.2,2.9-0.8,3.8C25.3,15.6,25.1,15,25.1,15z"/>
<linearGradient id="SVGID_15_" gradientUnits="userSpaceOnUse" x1="15.9321" y1="11.125" x2="15.9321" y2="1.065814e-14">
	<stop  offset="1.086957e-02" style="stop-color:#088AC2"/>
	<stop  offset="0.1809" style="stop-color:#0887C2"/>
	<stop  offset="0.3" style="stop-color:#077EC4"/>
	<stop  offset="0.4036" style="stop-color:#056FC6"/>
	<stop  offset="0.4978" style="stop-color:#0259C9"/>
	<stop  offset="0.5652" style="stop-color:#0044CC"/>
	<stop  offset="1" style="stop-color:#003C80"/>
</linearGradient>
<path fill="url(#SVGID_15_)" d="M16.2,0C8,0,4.9,3.4,4.9,5.6c0,3.1,4.9,5.6,11.2,5.6c6.7,0,10.8-2.9,10.8-5.6
	C26.9,2.9,23.6,0,16.2,0z M16.2,10.1c-6.1,0-10.2-2.3-10.2-4.6c0-1.8,3-4.6,10.2-4.6c7.1,0,9.8,2.6,9.8,4.6
	C25.9,7.6,22.3,10.1,16.2,10.1z"/>
<linearGradient id="SVGID_16_" gradientUnits="userSpaceOnUse" x1="15.9321" y1="10.125" x2="15.9321" y2="1">
	<stop  offset="1.086957e-02" style="stop-color:#4FCAFF"/>
	<stop  offset="9.461705e-02" style="stop-color:#64EBEA"/>
	<stop  offset="0.1467" style="stop-color:#6EFAE0"/>
	<stop  offset="0.1853" style="stop-color:#68F0DF"/>
	<stop  offset="0.8424" style="stop-color:#0044CC"/>
	<stop  offset="1" style="stop-color:#003C80"/>
</linearGradient>
<path fill="url(#SVGID_16_)" d="M16.2,1C8.9,1,5.9,3.8,5.9,5.6c0,2.2,4.1,4.6,10.2,4.6s9.8-2.6,9.8-4.6C25.9,3.6,23.3,1,16.2,1z
	 M16,7.1c-4.6,0-7.9-1.5-7.9-2.6s3.5-2.6,8.1-2.6s8.1,1.4,8.1,2.4S20.5,7.1,16,7.1z"/>
<linearGradient id="SVGID_17_" gradientUnits="userSpaceOnUse" x1="16.1733" y1="7.8252" x2="16.1733" y2="1.9375">
	<stop  offset="0" style="stop-color:#11A8D6"/>
	<stop  offset="1" style="stop-color:#003C80"/>
</linearGradient>
<path fill="url(#SVGID_17_)" d="M16.2,1.9c-4.2,0-8,0.6-8.8,2.6c-0.6,1.6,4,3.3,8.6,3.3c4.6,0,9.8-1.9,9-3.5
	C23.9,2.4,20.4,1.9,16.2,1.9z M16,7.1c-4.6,0-7.9-1.5-7.9-2.6s3.5-2.6,8.1-2.6s8.1,1.4,8.1,2.4S20.5,7.1,16,7.1z"/>
</svg>
