<?xml version="1.0" encoding="utf-8"?>
<!-- Generator: Adobe Illustrator 15.0.2, SVG Export Plug-In  -->
<!DOCTYPE svg PUBLIC "-//W3C//DTD SVG 1.1//EN" "http://www.w3.org/Graphics/SVG/1.1/DTD/svg11.dtd" [
	<!ENTITY ns_flows "http://ns.adobe.com/Flows/1.0/">
]>
<svg version="1.1"
	 xmlns="http://www.w3.org/2000/svg" xmlns:xlink="http://www.w3.org/1999/xlink" xmlns:a="http://ns.adobe.com/AdobeSVGViewerExtensions/3.0/"
	 viewBox="-0.7 -0.7 26 28"
	 overflow="visible" enable-background="new -0.7 -0.7 26 28" xml:space="preserve">
<defs>
</defs>
<radialGradient id="SVGID_1_" cx="18.7705" cy="6.0684" r="5.5309" gradientTransform="matrix(0.809 0.5878 -1.1756 1.618 10.7186 -14.7835)" gradientUnits="userSpaceOnUse">
	<stop  offset="0" style="stop-color:#E0AB24"/>
	<stop  offset="0.1582" style="stop-color:#DDA924"/>
	<stop  offset="0.2642" style="stop-color:#D4A224"/>
	<stop  offset="0.3549" style="stop-color:#C59725"/>
	<stop  offset="0.437" style="stop-color:#B08625"/>
	<stop  offset="0.5126" style="stop-color:#947226"/>
	<stop  offset="0.558" style="stop-color:#806226"/>
</radialGradient>
<path fill="url(#SVGID_1_)" d="M13.8,5.5c0,0,7-7.4,9.5-5c0.6,0.8,0.7,5-0.8,9.7C20.3,16.6,13.8,5.5,13.8,5.5z"/>
<radialGradient id="SVGID_2_" cx="31.7705" cy="6.0684" r="5.5309" gradientTransform="matrix(-0.809 0.5878 1.1756 1.618 24.3396 -22.4247)" gradientUnits="userSpaceOnUse">
	<stop  offset="0" style="stop-color:#E0AB24"/>
	<stop  offset="0.1582" style="stop-color:#DDA924"/>
	<stop  offset="0.2642" style="stop-color:#D4A224"/>
	<stop  offset="0.3549" style="stop-color:#C59725"/>
	<stop  offset="0.437" style="stop-color:#B08625"/>
	<stop  offset="0.5126" style="stop-color:#947226"/>
	<stop  offset="0.558" style="stop-color:#806226"/>
</radialGradient>
<path fill="url(#SVGID_2_)" d="M10.7,5.5c0,0-7-7.4-9.5-5c-0.6,0.8-0.7,5,0.8,9.7C4.3,16.6,10.7,5.5,10.7,5.5z"/>
<linearGradient id="SVGID_3_" gradientUnits="userSpaceOnUse" x1="12.375" y1="3.1436" x2="12.375" y2="26.5815">
	<stop  offset="0" style="stop-color:#5E5500"/>
	<stop  offset="1" style="stop-color:#7D4B00"/>
</linearGradient>
<path fill="url(#SVGID_3_)" d="M23.5,11.6c0.5,1.9,2.3,5.3,0.3,10.4c-1.4,3.5-4.8,3.1-7,3.3c-1.4,0.1-2.7,1.2-4.5,1.2
	c-1.8,0-3-1.1-4.4-1.2c-2-0.2-5.4,0.6-7-2.8c-2.1-4.6-0.2-8.7,0.3-10.8c1.3-5.8,4.1-8.6,11.1-8.6C20,3.1,22.3,6.5,23.5,11.6z"/>
<radialGradient id="SVGID_4_" cx="12.3779" cy="14.8623" r="11.3519" gradientUnits="userSpaceOnUse">
	<stop  offset="0" style="stop-color:#FFD43B"/>
	<stop  offset="0.3187" style="stop-color:#FCCF3C"/>
	<stop  offset="0.6727" style="stop-color:#F2C23D"/>
	<stop  offset="0.8066" style="stop-color:#EDBB3E"/>
	<stop  offset="0.8753" style="stop-color:#E3B236"/>
	<stop  offset="0.9929" style="stop-color:#C79822"/>
	<stop  offset="0.9945" style="stop-color:#C79822"/>
</radialGradient>
<path fill="url(#SVGID_4_)" d="M23.2,15.8c-1,2.6-3.3,2.7-5.4,2.8c-0.4,0-0.7,0-1,0.1c-0.7,0.1-1.4,0.3-2,0.6
	c-0.8,0.3-1.6,0.6-2.5,0.6c-0.8,0-1.5-0.3-2.3-0.6c-0.6-0.3-1.3-0.6-2-0.6c-0.3,0-0.7,0-1.1,0l-0.5,0c-2.1,0-3.8-0.2-4.8-2.4
	c-0.2-0.4-0.4-0.9-0.5-1.3c-0.5,2-0.7,4.6,0.5,7.3c1,2.2,2.8,2.4,4.8,2.4l0.5,0c0.4,0,0.7,0,1.1,0c0.7,0.1,1.4,0.3,2,0.6
	c0.7,0.3,1.5,0.6,2.3,0.6c0.9,0,1.7-0.3,2.5-0.6c0.6-0.2,1.3-0.5,2-0.6c0.3,0,0.6,0,1-0.1c2.1-0.1,4.4-0.2,5.4-2.8
	c1.2-3.1,0.9-5.5,0.5-7.4C23.5,14.9,23.4,15.4,23.2,15.8z"/>
<radialGradient id="SVGID_5_" cx="12.3701" cy="14.8623" r="11.3585" gradientUnits="userSpaceOnUse">
	<stop  offset="0" style="stop-color:#FFDA21"/>
	<stop  offset="0.2787" style="stop-color:#FCD826"/>
	<stop  offset="0.5883" style="stop-color:#F3D333"/>
	<stop  offset="0.674" style="stop-color:#F0D138"/>
	<stop  offset="0.8343" style="stop-color:#EDBB3E"/>
	<stop  offset="1" style="stop-color:#B38617"/>
</radialGradient>
<path fill="url(#SVGID_5_)" d="M6.4,18.6l0.5,0c0.4,0,0.7,0,1.1,0c0.7,0.1,1.4,0.3,2,0.6c0.7,0.3,1.5,0.6,2.3,0.6
	c0.9,0,1.7-0.3,2.5-0.6c0.6-0.2,1.3-0.5,2-0.6c0.3,0,0.6,0,1-0.1c2.1-0.1,4.4-0.2,5.4-2.8c0.2-0.5,0.3-0.9,0.5-1.4
	c-0.1-0.5-0.3-1-0.4-1.5c-0.1-0.4-0.3-0.8-0.3-1.2c-1.2-4.9-3.4-8-10.5-8c-6.3,0-9.1,2.2-10.4,8c-0.1,0.4-0.2,0.8-0.3,1.2
	c-0.2,0.5-0.3,1.1-0.5,1.8c0.1,0.4,0.3,0.9,0.5,1.3C2.6,18.4,4.4,18.6,6.4,18.6z"/>
<radialGradient id="SVGID_6_" cx="12.3701" cy="8.8623" r="11.3559" gradientTransform="matrix(1 0 0 0.8 0 1.7725)" gradientUnits="userSpaceOnUse">
	<stop  offset="0" style="stop-color:#FFEDAD"/>
	<stop  offset="0.1307" style="stop-color:#FDEAA7;stop-opacity:0.8693"/>
	<stop  offset="0.3134" style="stop-color:#F9E094;stop-opacity:0.6866"/>
	<stop  offset="0.5266" style="stop-color:#F1D177;stop-opacity:0.4734"/>
	<stop  offset="0.7631" style="stop-color:#E6BC4D;stop-opacity:0.2369"/>
	<stop  offset="1" style="stop-color:#D9A31C;stop-opacity:0"/>
</radialGradient>
<path fill="url(#SVGID_6_)" d="M6.4,18.6l0.5,0c0.4,0,0.7,0,1.1,0c0.7,0.1,1.4,0.3,2,0.6c0.7,0.3,1.5,0.6,2.3,0.6
	c0.9,0,1.7-0.3,2.5-0.6c0.6-0.2,1.3-0.5,2-0.6c0.3,0,0.6,0,1-0.1c2.1-0.1,4.4-0.2,5.4-2.8c0.2-0.5,0.3-0.9,0.5-1.4
	c-0.1-0.5-0.3-1-0.4-1.5c-0.1-0.4-0.3-0.8-0.3-1.2c-1.2-4.9-3.4-8-10.5-8c-6.3,0-9.1,2.2-10.4,8c-0.1,0.4-0.2,0.8-0.3,1.2
	c-0.2,0.5-0.3,1.1-0.5,1.8c0.1,0.4,0.3,0.9,0.5,1.3C2.6,18.4,4.4,18.6,6.4,18.6z"/>
<radialGradient id="SVGID_7_" cx="7.252" cy="16.124" r="3.3684" gradientTransform="matrix(1.2 0 0 1.7523 -1.4506 -12.1508)" gradientUnits="userSpaceOnUse">
	<stop  offset="0.3812" style="stop-color:#6E4E0E"/>
	<stop  offset="0.4278" style="stop-color:#917313;stop-opacity:0.9419"/>
	<stop  offset="0.4876" style="stop-color:#B99C19;stop-opacity:0.8672"/>
	<stop  offset="0.5463" style="stop-color:#D7BC1E;stop-opacity:0.7939"/>
	<stop  offset="0.6026" style="stop-color:#EDD321;stop-opacity:0.7236"/>
	<stop  offset="0.6556" style="stop-color:#FAE123;stop-opacity:0.6576"/>
	<stop  offset="0.7017" style="stop-color:#FFE624;stop-opacity:0.6"/>
	<stop  offset="1" style="stop-color:#FFE600;stop-opacity:0"/>
</radialGradient>
<path fill="url(#SVGID_7_)" d="M7.3,19.6c-1.7,0-3.1-1.6-3.1-3.5c0-1.9,1.4-3.5,3.1-3.5c1.7,0,3.1,1.6,3.1,3.5
	C10.4,18,9,19.6,7.3,19.6z"/>
<radialGradient id="SVGID_8_" cx="7.3345" cy="16.124" r="1.7201" gradientTransform="matrix(1.3 0 0 2.1981 -2.2003 -19.1005)" gradientUnits="userSpaceOnUse">
	<stop  offset="0" style="stop-color:#4F4F4F"/>
	<stop  offset="5.695426e-02" style="stop-color:#3B3B3B"/>
	<stop  offset="0.1398" style="stop-color:#252525"/>
	<stop  offset="0.2376" style="stop-color:#141414"/>
	<stop  offset="0.3587" style="stop-color:#090909"/>
	<stop  offset="0.5285" style="stop-color:#020202"/>
	<stop  offset="1" style="stop-color:#000000"/>
</radialGradient>
<path fill="url(#SVGID_8_)" d="M7.3,18.8c-0.5,0-1.3-1-1.3-2.4s0.8-2.4,1.3-2.4c0.5,0,1.3,1,1.3,2.4S7.9,18.8,7.3,18.8z"/>
<radialGradient id="SVGID_9_" cx="17.377" cy="16.1494" r="3.369" gradientTransform="matrix(1.2 0 0 1.7523 -3.475 -12.175)" gradientUnits="userSpaceOnUse">
	<stop  offset="0.3812" style="stop-color:#6E4E0E"/>
	<stop  offset="0.4278" style="stop-color:#917313;stop-opacity:0.9419"/>
	<stop  offset="0.4876" style="stop-color:#B99C19;stop-opacity:0.8672"/>
	<stop  offset="0.5463" style="stop-color:#D7BC1E;stop-opacity:0.7939"/>
	<stop  offset="0.6026" style="stop-color:#EDD321;stop-opacity:0.7236"/>
	<stop  offset="0.6556" style="stop-color:#FAE123;stop-opacity:0.6576"/>
	<stop  offset="0.7017" style="stop-color:#FFE624;stop-opacity:0.6"/>
	<stop  offset="1" style="stop-color:#FFE600;stop-opacity:0"/>
</radialGradient>
<path fill="url(#SVGID_9_)" d="M17.4,19.6c-1.7,0-3.1-1.6-3.1-3.5c0-1.9,1.4-3.5,3.1-3.5c1.7,0,3.1,1.6,3.1,3.5
	C20.5,18.1,19.1,19.6,17.4,19.6z"/>
<radialGradient id="SVGID_10_" cx="17.376" cy="16.124" r="1.7203" gradientTransform="matrix(1.3 0 0 2.1981 -5.213 -19.1005)" gradientUnits="userSpaceOnUse">
	<stop  offset="0" style="stop-color:#4F4F4F"/>
	<stop  offset="5.695426e-02" style="stop-color:#3B3B3B"/>
	<stop  offset="0.1398" style="stop-color:#252525"/>
	<stop  offset="0.2376" style="stop-color:#141414"/>
	<stop  offset="0.3587" style="stop-color:#090909"/>
	<stop  offset="0.5285" style="stop-color:#020202"/>
	<stop  offset="1" style="stop-color:#000000"/>
</radialGradient>
<path fill="url(#SVGID_10_)" d="M17.4,18.8c-0.5,0-1.3-1-1.3-2.4s0.8-2.4,1.3-2.4s1.3,1,1.3,2.4S17.9,18.8,17.4,18.8z"/>
<path fill="none" stroke="#997536" stroke-width="0.5" stroke-miterlimit="9" d="M13.8,22.3c0,0,4.9-1.3,9.1,1.3"/>
<path fill="none" stroke="#997536" stroke-width="0.5" stroke-miterlimit="9" d="M20.8,23.8c-2.7-1.2-7.6-1.3-7.1-1.3"/>
<path fill="none" stroke="#997536" stroke-width="0.5" stroke-miterlimit="9" d="M10.9,22.3c0,0-4.9-1.3-9.1,1.3"/>
<path fill="none" stroke="#997536" stroke-width="0.5" stroke-miterlimit="9" d="M4.1,23.8c2.7-1.2,7.6-1.3,7.1-1.3"/>
<linearGradient id="SVGID_11_" gradientUnits="userSpaceOnUse" x1="12.4355" y1="26.1436" x2="12.4355" y2="23.0811">
	<stop  offset="0" style="stop-color:#DB9D00"/>
	<stop  offset="4.503914e-02" style="stop-color:#BB8604"/>
	<stop  offset="0.1492" style="stop-color:#74540D"/>
	<stop  offset="0.1581" style="stop-color:#725214"/>
	<stop  offset="0.1878" style="stop-color:#6D4F24"/>
	<stop  offset="0.2248" style="stop-color:#694C30"/>
	<stop  offset="0.2766" style="stop-color:#674A37"/>
	<stop  offset="0.4199" style="stop-color:#664A39"/>
</linearGradient>
<path fill="url(#SVGID_11_)" d="M9.8,25.2c0,0,2.4,0.2,2.7-2.1c0.3,2.4,2.7,2.1,2.7,2.1s-1.2,0.9-2.7,0.9
	C10.9,26.1,9.8,25.2,9.8,25.2z"/>
<linearGradient id="SVGID_12_" gradientUnits="userSpaceOnUse" x1="12.4092" y1="23.6123" x2="12.4092" y2="21.0127">
	<stop  offset="0" style="stop-color:#5C3A21"/>
	<stop  offset="0.5635" style="stop-color:#6E5B4D"/>
	<stop  offset="0.6462" style="stop-color:#7B6856"/>
	<stop  offset="0.7986" style="stop-color:#9D896F"/>
	<stop  offset="0.989" style="stop-color:#CFBB93"/>
</linearGradient>
<path fill="url(#SVGID_12_)" d="M14.4,22.2c-0.5,0.7-0.9,1.5-2,1.5c-1.1,0-1.6-0.8-2-1.5c-0.1-0.2-0.1-0.6,0.1-0.8
	c0.3-0.4,1.1-0.4,1.9-0.3c0.8-0.2,1.5-0.1,1.8,0.2C14.4,21.5,14.5,22,14.4,22.2z"/>
</svg>
