<?xml version="1.0" encoding="utf-8"?>
<!-- Generator: Adobe Illustrator 15.0.2, SVG Export Plug-In  -->
<!DOCTYPE svg PUBLIC "-//W3C//DTD SVG 1.1//EN" "http://www.w3.org/Graphics/SVG/1.1/DTD/svg11.dtd" [
	<!ENTITY ns_flows "http://ns.adobe.com/Flows/1.0/">
]>
<svg version="1.1"
	 xmlns="http://www.w3.org/2000/svg" xmlns:xlink="http://www.w3.org/1999/xlink" xmlns:a="http://ns.adobe.com/AdobeSVGViewerExtensions/3.0/"
	 viewBox="0 -0.3 30 27" overflow="visible" enable-background="new 0 -0.3 30 27"
	 xml:space="preserve">
<defs>
</defs>
<linearGradient id="SVGID_1_" gradientUnits="userSpaceOnUse" x1="20.9932" y1="12.5088" x2="29.9561" y2="12.5088">
	<stop  offset="0" style="stop-color:#444647"/>
	<stop  offset="0.1573" style="stop-color:#5B5D5E"/>
	<stop  offset="0.4493" style="stop-color:#818385"/>
	<stop  offset="0.6022" style="stop-color:#8F9294"/>
	<stop  offset="0.9834" style="stop-color:#ADB1B3"/>
</linearGradient>
<path fill="url(#SVGID_1_)" d="M21.1,17.5c0-0.1-0.1-1.6,0-5.3l0-1l1-0.1c2.3-0.2,3.2-2.5,3.2-2.6l0.1-0.1l0.1-0.1
	C26.7,6.7,27.6,6,28.4,6c0.4,0,0.8,0.2,1.1,0.5C30,7,30,7.9,29.9,8.3c-0.2,6.6-7,9.9-7.3,10L21.2,19L21.1,17.5z"/>
<linearGradient id="SVGID_2_" gradientUnits="userSpaceOnUse" x1="22.0938" y1="12.2271" x2="28.8525" y2="12.2271">
	<stop  offset="0" style="stop-color:#525354"/>
	<stop  offset="7.188107e-02" style="stop-color:#747575"/>
	<stop  offset="0.2156" style="stop-color:#B2B3B3"/>
	<stop  offset="0.3208" style="stop-color:#D9D9D9"/>
	<stop  offset="0.3757" style="stop-color:#E8E8E8"/>
	<stop  offset="0.3872" style="stop-color:#E8E8E8"/>
	<stop  offset="1" style="stop-color:#FAFCFF"/>
</linearGradient>
<path fill="url(#SVGID_2_)" d="M22.1,17.4c0,0,6.6-3.1,6.7-9.1c0,0,0.4-3.1-2.5,0.7c0,0-1.2,3-4.2,3.3C22,15.9,22.1,17.4,22.1,17.4z
	"/>
<linearGradient id="SVGID_3_" gradientUnits="userSpaceOnUse" x1="41.9873" y1="12.5088" x2="50.9482" y2="12.5088" gradientTransform="matrix(-1 0 0 1 50.9492 0)">
	<stop  offset="0" style="stop-color:#444647"/>
	<stop  offset="0.1573" style="stop-color:#5B5D5E"/>
	<stop  offset="0.4493" style="stop-color:#818385"/>
	<stop  offset="0.6022" style="stop-color:#8F9294"/>
	<stop  offset="0.9834" style="stop-color:#ADB1B3"/>
</linearGradient>
<path fill="url(#SVGID_3_)" d="M8.9,17.5c0-0.1,0.1-1.6,0-5.3l0-1l-1-0.1C5.6,11,4.7,8.6,4.6,8.6L4.6,8.4L4.5,8.3
	C3.2,6.7,2.4,6,1.5,6C1.1,6,0.7,6.2,0.5,6.5C0,7,0,7.9,0,8.3c0.2,6.6,7,9.9,7.3,10L8.8,19L8.9,17.5z"/>
<linearGradient id="SVGID_4_" gradientUnits="userSpaceOnUse" x1="43.0879" y1="12.2271" x2="49.8467" y2="12.2271" gradientTransform="matrix(-1 0 0 1 50.9492 0)">
	<stop  offset="0" style="stop-color:#525354"/>
	<stop  offset="7.188107e-02" style="stop-color:#747575"/>
	<stop  offset="0.2156" style="stop-color:#B2B3B3"/>
	<stop  offset="0.3208" style="stop-color:#D9D9D9"/>
	<stop  offset="0.3757" style="stop-color:#E8E8E8"/>
	<stop  offset="0.3872" style="stop-color:#E8E8E8"/>
	<stop  offset="1" style="stop-color:#FAFCFF"/>
</linearGradient>
<path fill="url(#SVGID_4_)" d="M7.8,17.4c0,0-6.6-3.1-6.7-9.1c0,0-0.4-3.1,2.5,0.7c0,0,1.2,3,4.2,3.3C7.9,15.9,7.8,17.4,7.8,17.4z"
	/>
<linearGradient id="SVGID_5_" gradientUnits="userSpaceOnUse" x1="14.8862" y1="26.6201" x2="14.8862" y2="4.882812e-04">
	<stop  offset="0" style="stop-color:#444647"/>
	<stop  offset="0.1573" style="stop-color:#5B5D5E"/>
	<stop  offset="0.4493" style="stop-color:#818385"/>
	<stop  offset="0.6022" style="stop-color:#8F9294"/>
	<stop  offset="0.9834" style="stop-color:#ADB1B3"/>
</linearGradient>
<path fill="url(#SVGID_5_)" d="M15,26.6c-1.1,0-2-0.1-2.9-0.5c-0.8-0.3-1.6-0.7-2.4-0.7c-0.1,0-0.2,0-0.3,0c-0.5,0.1-1,0.3-1.6,0.5
	c-0.8,0.3-1.7,0.7-2.8,0.7c-0.4,0-1.2-0.1-1.5-0.2c-0.5-0.1-1.1-0.4-1.3-0.8c-0.4-0.8,0.6-1.9,1.2-3C4.2,21,6,18.2,6.1,14.7
	C6.1,14,6,13,6,12c0-1.1,0-2.2,0-3c0-5.3,3.7-9,8.9-9S24,4,24,9.2c0,1.1,0,5.8-0.1,7.1c-0.1,2.9,1.5,4.8,2.4,6
	c0.6,0.8,2.2,2.8,1,3.9c-0.2,0.2-0.6,0.4-1.1,0.4c-0.5,0-1.6-0.3-2.2-0.5c-0.8-0.3-1.9-0.7-3-0.7c-0.2,0-0.4,0-0.6,0
	c-0.2,0-0.8,0.2-1.2,0.4C18.1,26.3,16.5,26.6,15,26.6L15,26.6z"/>
<linearGradient id="SVGID_6_" gradientUnits="userSpaceOnUse" x1="14.8687" y1="25.0625" x2="14.8687" y2="0.938">
	<stop  offset="0" style="stop-color:#525354"/>
	<stop  offset="7.188107e-02" style="stop-color:#747575"/>
	<stop  offset="0.2156" style="stop-color:#B2B3B3"/>
	<stop  offset="0.3208" style="stop-color:#D9D9D9"/>
	<stop  offset="0.3757" style="stop-color:#E8E8E8"/>
	<stop  offset="0.3872" style="stop-color:#E8E8E8"/>
	<stop  offset="1" style="stop-color:#FAFCFF"/>
</linearGradient>
<path fill="url(#SVGID_6_)" d="M23.1,9.2c0,1.4,0,5.8-0.1,7c-0.2,5.3,3.6,7.7,2.8,8.4c-0.6,0.5-2.5-1.2-5.4-0.9
	c-1,0.1-3.3,1.5-5.4,1.4c-2,0-3.6-1.7-5.9-1.4c-1.8,0.2-3.1,1.6-5.1,1.1c-1-0.2,2.9-3.8,3-9.8c0-1.4-0.1-4.1-0.1-5.7
	c0-4.6,3.6-8.2,8.1-8.2C19.5,0.9,23.1,4.6,23.1,9.2z"/>
<radialGradient id="SVGID_7_" cx="17.9932" cy="8.6875" r="3.0312" gradientUnits="userSpaceOnUse">
	<stop  offset="1.104972e-02" style="stop-color:#757575"/>
	<stop  offset="0.6851" style="stop-color:#000000"/>
	<stop  offset="1" style="stop-color:#000000"/>
</radialGradient>
<circle fill="url(#SVGID_7_)" cx="18" cy="8.7" r="3"/>
<circle cx="10.5" cy="9" r="1.5"/>
<linearGradient id="SVGID_8_" gradientUnits="userSpaceOnUse" x1="14.9775" y1="20.792" x2="14.9775" y2="13.6875">
	<stop  offset="0" style="stop-color:#FFBADB"/>
	<stop  offset="7.970122e-02" style="stop-color:#FFA5D0"/>
	<stop  offset="0.2329" style="stop-color:#FF83BF"/>
	<stop  offset="0.3592" style="stop-color:#FF6EB4"/>
	<stop  offset="0.442" style="stop-color:#FF66B0"/>
	<stop  offset="0.7357" style="stop-color:#C01D5E"/>
	<stop  offset="0.8453" style="stop-color:#A8003E"/>
</linearGradient>
<path fill="url(#SVGID_8_)" d="M18,17.3c0,2.1-1.4,3.4-3,3.4c-1.7,0-3-1.4-3-3.4c0-1.1,0-2.5,0-3.7c1.6,0.5,2.2,0.6,3,0.6
	c0.8,0,1.6-0.1,3-0.6C18,14.9,18,16.3,18,17.3z"/>
<radialGradient id="SVGID_9_" cx="14.9775" cy="17.2402" r="3.2946" gradientTransform="matrix(1 0 0 1.1 0 -1.724)" gradientUnits="userSpaceOnUse">
	<stop  offset="0" style="stop-color:#F7547A;stop-opacity:0"/>
	<stop  offset="0.2649" style="stop-color:#FB5E8E;stop-opacity:0"/>
	<stop  offset="0.547" style="stop-color:#FF669E;stop-opacity:0"/>
	<stop  offset="0.8895" style="stop-color:#8F0A51"/>
</radialGradient>
<path fill="url(#SVGID_9_)" d="M18,17.3c0,2.1-1.4,3.4-3,3.4c-1.7,0-3-1.4-3-3.4c0-1.1,0-2.5,0-3.7c1.6,0.5,2.2,0.6,3,0.6
	c0.8,0,1.6-0.1,3-0.6C18,14.9,18,16.3,18,17.3z"/>
<radialGradient id="SVGID_10_" cx="14.9785" cy="14.1924" r="4.1684" gradientTransform="matrix(1 0 0 0.4 0 8.5154)" gradientUnits="userSpaceOnUse">
	<stop  offset="0" style="stop-color:#000000"/>
	<stop  offset="0.2657" style="stop-color:#030303"/>
	<stop  offset="0.4472" style="stop-color:#0C0C0C"/>
	<stop  offset="0.6035" style="stop-color:#1B1B1B"/>
	<stop  offset="0.7455" style="stop-color:#313131"/>
	<stop  offset="0.8765" style="stop-color:#4C4C4C"/>
	<stop  offset="1" style="stop-color:#6E6E6E"/>
</radialGradient>
<path fill="url(#SVGID_10_)" d="M14.9,15.5c-2.7,0-4.9-1.6-5.6-2.1c-0.1-0.1,0-0.3,0-0.3l0.8-0.3c0,0,0.3,0,0.4,0
	c0.5,0.3,2.2,1.1,4.5,1.1c1.4,0,2.9-0.1,4.7-1.2c0.1,0,0.4,0,0.4,0l0.6,0.3c0,0,0.1,0.2,0,0.3C18.7,15,16.4,15.5,14.9,15.5z"/>
</svg>
