<?xml version="1.0" encoding="utf-8"?>
<!-- Generator: Adobe Illustrator 15.0.2, SVG Export Plug-In  -->
<!DOCTYPE svg PUBLIC "-//W3C//DTD SVG 1.1//EN" "http://www.w3.org/Graphics/SVG/1.1/DTD/svg11.dtd" [
	<!ENTITY ns_flows "http://ns.adobe.com/Flows/1.0/">
]>
<svg version="1.1"
	 xmlns="http://www.w3.org/2000/svg" xmlns:xlink="http://www.w3.org/1999/xlink" xmlns:a="http://ns.adobe.com/AdobeSVGViewerExtensions/3.0/"
	 viewBox="-0.28 -0.21 25 28"
	 overflow="visible" enable-background="new -0.28 -0.21 25 28" xml:space="preserve">
<defs>
</defs>
<radialGradient id="SVGID_1_" cx="12.061" cy="22.7319" r="5.412" gradientUnits="userSpaceOnUse">
	<stop  offset="0" style="stop-color:#FFFFFF"/>
	<stop  offset="0.1102" style="stop-color:#CBCBCB"/>
	<stop  offset="0.2335" style="stop-color:#989898"/>
	<stop  offset="0.3596" style="stop-color:#6D6D6D"/>
	<stop  offset="0.4859" style="stop-color:#494949"/>
	<stop  offset="0.6126" style="stop-color:#2E2E2E"/>
	<stop  offset="0.74" style="stop-color:#1A1A1A"/>
	<stop  offset="0.8686" style="stop-color:#0E0E0E"/>
	<stop  offset="1" style="stop-color:#0A0A0A"/>
</radialGradient>
<path fill="url(#SVGID_1_)" d="M18.01,24c0-2.81-2.66-6.09-5.94-6.09S6.12,21.19,6.12,24c0,1.93,1.26,2.79,3.12,3.25l0-0.03
	c0-0.26,0.21-0.47,0.47-0.47s0.47,0.21,0.47,0.47l0,0.21c0.19,0.03,0.39,0.05,0.59,0.07l0-0.28c0-0.26,0.21-0.47,0.47-0.47
	s0.47,0.21,0.47,0.47l0,0.33c0.12,0,0.24,0.01,0.36,0.01c0.06,0,0.12,0,0.18,0l0-0.33c0-0.26,0.21-0.47,0.47-0.47
	s0.47,0.21,0.47,0.47l0,0.29c0.2-0.01,0.39-0.03,0.58-0.06l0-0.24c0-0.26,0.21-0.47,0.47-0.47s0.47,0.21,0.47,0.47l0,0.07
	C16.65,26.85,18.01,26,18.01,24z"/>
<path d="M11.7,27.58c-0.32-0.01-0.64-0.02-0.95-0.05l-0.18-0.02l0-0.46c0-0.37,0.3-0.67,0.67-0.67s0.67,0.3,0.67,0.67l0,0.53
	L11.7,27.58z"/>
<path fill="#E3E3E3" d="M11.24,26.59c-0.26,0-0.47,0.21-0.47,0.47l0,0.28c0.3,0.03,0.62,0.04,0.94,0.05l0-0.33
	C11.71,26.8,11.5,26.59,11.24,26.59z"/>
<path d="M12.04,27.06c0-0.37,0.3-0.67,0.67-0.67s0.67,0.3,0.67,0.67l0,0.48l-0.19,0.01c-0.31,0.02-0.62,0.04-0.95,0.04l-0.2,0
	L12.04,27.06z"/>
<path fill="#E3E3E3" d="M12.71,26.59c-0.26,0-0.47,0.21-0.47,0.47l0,0.33c0.32,0,0.63-0.02,0.94-0.04l0-0.29
	C13.18,26.8,12.97,26.59,12.71,26.59z"/>
<path d="M13.56,27.06c0-0.37,0.3-0.67,0.67-0.67s0.67,0.3,0.67,0.67v0.16l-0.16,0.11c-0.3,0.07-0.62,0.12-0.96,0.17l-0.23,0.03
	L13.56,27.06z"/>
<path fill="#E3E3E3" d="M14.22,26.59c-0.26,0-0.47,0.21-0.47,0.47l0,0.24c0.33-0.04,0.64-0.09,0.94-0.16l0-0.07
	C14.69,26.8,14.48,26.59,14.22,26.59z"/>
<path d="M10.15,27.46c-0.33-0.05-0.65-0.11-0.96-0.18l-0.16-0.04l0.01-0.16c0-0.39,0.3-0.69,0.67-0.69c0.37,0,0.67,0.3,0.67,0.67
	l0,0.44L10.15,27.46z"/>
<path fill="#E3E3E3" d="M9.71,26.59c-0.26,0-0.47,0.21-0.47,0.47l0,0.03c0.3,0.08,0.61,0.13,0.94,0.18l0-0.21
	C10.17,26.8,9.96,26.59,9.71,26.59z"/>
<path d="M11.25,26.13c-0.45,0-0.81-0.3-0.81-0.67V23.4c0-0.37,0.36-0.67,0.81-0.67s0.81,0.3,0.81,0.67v2.06
	C12.06,25.83,11.7,26.13,11.25,26.13z"/>
<path fill="#E3E3E3" d="M10.64,23.4c0-0.26,0.27-0.47,0.61-0.47l0,0c0.34,0,0.61,0.21,0.61,0.47v2.06c0,0.26-0.27,0.47-0.61,0.47
	l0,0c-0.34,0-0.61-0.21-0.61-0.47V23.4z"/>
<path d="M12.73,26.13c-0.45,0-0.81-0.3-0.81-0.67V23.4c0-0.37,0.36-0.67,0.81-0.67s0.81,0.3,0.81,0.67v2.06
	C13.54,25.83,13.17,26.13,12.73,26.13z"/>
<path fill="#E3E3E3" d="M12.12,23.4c0-0.26,0.27-0.47,0.61-0.47l0,0c0.34,0,0.61,0.21,0.61,0.47v2.06c0,0.26-0.27,0.47-0.61,0.47
	l0,0c-0.34,0-0.61-0.21-0.61-0.47V23.4z"/>
<path d="M14.24,26.13c-0.37,0-0.67-0.3-0.67-0.67V23.4c0-0.37,0.3-0.67,0.67-0.67s0.67,0.3,0.67,0.67v2.06
	C14.91,25.83,14.61,26.13,14.24,26.13z"/>
<path fill="#E3E3E3" d="M13.77,23.4c0-0.26,0.21-0.47,0.47-0.47l0,0c0.26,0,0.47,0.21,0.47,0.47v2.06c0,0.26-0.21,0.47-0.47,0.47
	l0,0c-0.26,0-0.47-0.21-0.47-0.47V23.4z"/>
<path d="M9.72,26.13c-0.37,0-0.67-0.3-0.67-0.67V23.4c0-0.37,0.3-0.67,0.67-0.67c0.37,0,0.67,0.3,0.67,0.67v2.06
	C10.39,25.83,10.09,26.13,9.72,26.13z"/>
<path fill="#E3E3E3" d="M9.25,23.4c0-0.26,0.21-0.47,0.47-0.47l0,0c0.26,0,0.47,0.21,0.47,0.47v2.06c0,0.26-0.21,0.47-0.47,0.47l0,0
	c-0.26,0-0.47-0.21-0.47-0.47V23.4z"/>
<linearGradient id="SVGID_2_" gradientUnits="userSpaceOnUse" x1="11.981" y1="24.1763" x2="11.981" y2="4.882812e-04">
	<stop  offset="0.0109" style="stop-color:#000000"/>
	<stop  offset="0.135" style="stop-color:#030303"/>
	<stop  offset="0.2169" style="stop-color:#0C0C0C"/>
	<stop  offset="0.2865" style="stop-color:#1B1B1B"/>
	<stop  offset="0.3494" style="stop-color:#303030"/>
	<stop  offset="0.4076" style="stop-color:#4B4B4B"/>
	<stop  offset="0.4619" style="stop-color:#6D6D6D"/>
	<stop  offset="0.5132" style="stop-color:#949494"/>
	<stop  offset="0.5163" style="stop-color:#969696"/>
	<stop  offset="0.5918" style="stop-color:#6E6E6E"/>
	<stop  offset="0.6727" style="stop-color:#4A4A4A"/>
	<stop  offset="0.7545" style="stop-color:#2E2E2E"/>
	<stop  offset="0.8362" style="stop-color:#1A1A1A"/>
	<stop  offset="0.918" style="stop-color:#0E0E0E"/>
	<stop  offset="1" style="stop-color:#0A0A0A"/>
</linearGradient>
<path fill="url(#SVGID_2_)" d="M23.09,15.63c0.02-1.08-0.01-1.05,0.02-1.59c0.09-1.91,0.06-2.75,0.06-4.12
	C23.17,4.44,18.15,0,11.96,0S0.75,4.44,0.75,9.92c0,1.55,0.06,2.92,0,4.67c-0.02,0.46,0.01,0.76-0.04,1.32
	C0.35,16.44,0,17.47,0,18.42c0,2.21,2.01,4,4.49,4c0.58,0,1.13-0.11,1.63-0.28c0.09,2.68,2.71,1.95,5.94,1.95
	c3.21,0,5.82,0.73,5.93-1.91c0.46,0.14,0.96,0.24,1.48,0.24c2.48,0,4.49-1.79,4.49-4C23.96,17.32,23.89,16.35,23.09,15.63z"/>
<radialGradient id="SVGID_3_" cx="11.981" cy="12.0884" r="11.5343" gradientTransform="matrix(-4.371139e-08 -1 1.35 -5.901038e-08 -4.3384 24.0693)" gradientUnits="userSpaceOnUse">
	<stop  offset="0" style="stop-color:#DEDEDE"/>
	<stop  offset="0.2488" style="stop-color:#DBDBDB"/>
	<stop  offset="0.3995" style="stop-color:#D3D3D3"/>
	<stop  offset="0.5241" style="stop-color:#C5C5C5"/>
	<stop  offset="0.6345" style="stop-color:#B0B0B0"/>
	<stop  offset="0.7353" style="stop-color:#969696"/>
	<stop  offset="0.8294" style="stop-color:#757575"/>
	<stop  offset="0.9165" style="stop-color:#505050"/>
	<stop  offset="1" style="stop-color:#242424"/>
</radialGradient>
<path fill="url(#SVGID_3_)" d="M15.18,23.68c-0.42,0-0.87-0.02-1.35-0.04c-0.56-0.02-1.15-0.05-1.76-0.05
	c-0.61,0-1.2,0.03-1.75,0.05c-0.48,0.02-0.93,0.04-1.35,0.04c-1.75,0-2.3-0.36-2.34-1.56L6.6,21.44l-0.64,0.23
	c-0.48,0.17-0.98,0.25-1.47,0.25c-2.2,0-3.99-1.57-3.99-3.5c0-0.85,0.32-1.78,0.63-2.23l0.07-0.11l0.01-0.13
	c0.03-0.37,0.03-0.64,0.03-0.9c0-0.14,0-0.28,0.01-0.44c0.04-1.19,0.03-2.21,0.01-3.2c-0.01-0.49-0.01-0.98-0.01-1.49
	c0-5.19,4.8-9.42,10.71-9.42c5.9,0,10.71,4.22,10.71,9.42l0,0.75c0,0.97,0.01,1.82-0.07,3.34c-0.01,0.3-0.01,0.43-0.01,0.66
	c0,0.19,0,0.45,0,0.95l0,0.23L22.75,16c0.6,0.54,0.71,1.24,0.71,2.42c0,1.93-1.79,3.5-3.99,3.5c-0.42,0-0.86-0.07-1.33-0.22
	l-0.62-0.19l-0.03,0.65C17.44,23.32,16.9,23.68,15.18,23.68z"/>
<linearGradient id="SVGID_4_" gradientUnits="userSpaceOnUse" x1="5.9717" y1="17.2925" x2="5.9717" y2="11.2544">
	<stop  offset="0" style="stop-color:#DEDEDE"/>
	<stop  offset="0.0941" style="stop-color:#D5D5D5"/>
	<stop  offset="0.2454" style="stop-color:#BEBEBE"/>
	<stop  offset="0.4351" style="stop-color:#979797"/>
	<stop  offset="0.6558" style="stop-color:#616161"/>
	<stop  offset="0.8998" style="stop-color:#1E1E1E"/>
	<stop  offset="1" style="stop-color:#000000"/>
</linearGradient>
<path fill="url(#SVGID_4_)" d="M5.97,17.29c-1.66,0-3.02-1.35-3.02-3.02c0-1.66,1.35-3.02,3.02-3.02c1.67,0,3.02,1.35,3.02,3.02
	C8.99,15.94,7.64,17.29,5.97,17.29z"/>
<circle fill="#010101" cx="5.97" cy="14.27" r="2.02"/>
<linearGradient id="SVGID_5_" gradientUnits="userSpaceOnUse" x1="17.9712" y1="17.2925" x2="17.9712" y2="11.2544">
	<stop  offset="0" style="stop-color:#DEDEDE"/>
	<stop  offset="0.0941" style="stop-color:#D5D5D5"/>
	<stop  offset="0.2454" style="stop-color:#BEBEBE"/>
	<stop  offset="0.4351" style="stop-color:#979797"/>
	<stop  offset="0.6558" style="stop-color:#616161"/>
	<stop  offset="0.8998" style="stop-color:#1E1E1E"/>
	<stop  offset="1" style="stop-color:#000000"/>
</linearGradient>
<path fill="url(#SVGID_5_)" d="M17.97,17.29c-1.66,0-3.02-1.35-3.02-3.02c0-1.66,1.35-3.02,3.02-3.02c1.67,0,3.02,1.35,3.02,3.02
	C20.99,15.94,19.64,17.29,17.97,17.29z"/>
<circle fill="#010101" cx="17.97" cy="14.27" r="2.02"/>
<path fill="#010101" d="M13.96,19.05c0.48,1.05-0.79,1.44-1.73,0.61c-0.86,0.83-2.24,0.47-1.72-0.61c0.51-1.07,1.03-1.64,1.73-1.64
	C12.95,17.41,13.42,17.86,13.96,19.05z"/>
</svg>
